<?xml version="1.0" encoding="UTF-8" standalone="no"?><svg xmlns="http://www.w3.org/2000/svg" xmlns:xlink="http://www.w3.org/1999/xlink" contentStyleType="text/css" height="620px" preserveAspectRatio="none" style="width:1802px;height:620px;background:#FFFFFF;" version="1.1" viewBox="0 0 1802 620" width="1802px" zoomAndPan="magnify"><defs/><g><!--MD5=[701ca1a946997c70f44444ac97b72a7f]
class ServicesContract--><g id="elem_ServicesContract"><rect codeLine="1" fill="#F1F1F1" height="48" id="ServicesContract" rx="2.5" ry="2.5" style="stroke:#181818;stroke-width:0.5;" width="140" x="24.5" y="565"/><ellipse cx="39.5" cy="581" fill="#ADD1B2" rx="11" ry="11" style="stroke:#181818;stroke-width:1.0;"/><path d="M42.2656,576.875 Q42.4219,576.6563 42.6094,576.5469 Q42.7969,576.4375 43.0156,576.4375 Q43.3906,576.4375 43.625,576.6953 Q43.8594,576.9531 43.8594,577.5625 L43.8594,579.0156 Q43.8594,579.625 43.625,579.8906 Q43.3906,580.1563 43.0156,580.1563 Q42.6719,580.1563 42.4688,579.9531 Q42.2656,579.7656 42.1563,579.25 Q42.1094,578.8906 41.9219,578.7031 Q41.5938,578.3281 40.9844,578.1094 Q40.375,577.8906 39.75,577.8906 Q38.9844,577.8906 38.3516,578.2188 Q37.7188,578.5469 37.2266,579.2969 Q36.7344,580.0469 36.7344,581.0781 L36.7344,582.1719 Q36.7344,583.4063 37.625,584.2266 Q38.5156,585.0469 40.1094,585.0469 Q41.0469,585.0469 41.7031,584.7969 Q42.0938,584.6406 42.5156,584.2031 Q42.7813,583.9375 42.9297,583.8594 Q43.0781,583.7813 43.2813,583.7813 Q43.6094,583.7813 43.8672,584.0391 Q44.125,584.2969 44.125,584.6406 Q44.125,584.9844 43.7813,585.3906 Q43.2813,585.9688 42.4844,586.2969 Q41.4063,586.75 40.1094,586.75 Q38.5938,586.75 37.3906,586.125 Q36.4063,585.625 35.7188,584.5547 Q35.0313,583.4844 35.0313,582.2031 L35.0313,581.0469 Q35.0313,579.7188 35.6484,578.5703 Q36.2656,577.4219 37.3594,576.8047 Q38.4531,576.1875 39.6875,576.1875 Q40.4219,576.1875 41.0703,576.3516 Q41.7188,576.5156 42.2656,576.875 Z " fill="#000000"/><text fill="#000000" font-family="sans-serif" font-size="14" lengthAdjust="spacing" textLength="108" x="53.5" y="586.7285">ServicesContract</text><line style="stroke:#181818;stroke-width:0.5;" x1="25.5" x2="163.5" y1="597" y2="597"/><line style="stroke:#181818;stroke-width:0.5;" x1="25.5" x2="163.5" y1="605" y2="605"/></g><!--MD5=[f0268dd29ee89052933f031546cb1cab]
class Menu--><g id="elem_Menu"><rect codeLine="32" fill="#F1F1F1" height="65.6094" id="Menu" rx="2.5" ry="2.5" style="stroke:#181818;stroke-width:0.5;" width="89" x="668" y="7"/><ellipse cx="692.9" cy="23" fill="#ADD1B2" rx="11" ry="11" style="stroke:#181818;stroke-width:1.0;"/><path d="M695.6656,18.875 Q695.8219,18.6563 696.0094,18.5469 Q696.1969,18.4375 696.4156,18.4375 Q696.7906,18.4375 697.025,18.6953 Q697.2594,18.9531 697.2594,19.5625 L697.2594,21.0156 Q697.2594,21.625 697.025,21.8906 Q696.7906,22.1563 696.4156,22.1563 Q696.0719,22.1563 695.8688,21.9531 Q695.6656,21.7656 695.5563,21.25 Q695.5094,20.8906 695.3219,20.7031 Q694.9938,20.3281 694.3844,20.1094 Q693.775,19.8906 693.15,19.8906 Q692.3844,19.8906 691.7516,20.2188 Q691.1188,20.5469 690.6266,21.2969 Q690.1344,22.0469 690.1344,23.0781 L690.1344,24.1719 Q690.1344,25.4063 691.025,26.2266 Q691.9156,27.0469 693.5094,27.0469 Q694.4469,27.0469 695.1031,26.7969 Q695.4938,26.6406 695.9156,26.2031 Q696.1813,25.9375 696.3297,25.8594 Q696.4781,25.7813 696.6813,25.7813 Q697.0094,25.7813 697.2672,26.0391 Q697.525,26.2969 697.525,26.6406 Q697.525,26.9844 697.1813,27.3906 Q696.6813,27.9688 695.8844,28.2969 Q694.8063,28.75 693.5094,28.75 Q691.9938,28.75 690.7906,28.125 Q689.8063,27.625 689.1188,26.5547 Q688.4313,25.4844 688.4313,24.2031 L688.4313,23.0469 Q688.4313,21.7188 689.0484,20.5703 Q689.6656,19.4219 690.7594,18.8047 Q691.8531,18.1875 693.0875,18.1875 Q693.8219,18.1875 694.4703,18.3516 Q695.1188,18.5156 695.6656,18.875 Z " fill="#000000"/><text fill="#000000" font-family="sans-serif" font-size="14" lengthAdjust="spacing" textLength="35" x="709.1" y="28.7285">Menu</text><line style="stroke:#181818;stroke-width:0.5;" x1="669" x2="756" y1="39" y2="39"/><rect fill="none" height="6" style="stroke:#C82930;stroke-width:1.0;" width="6" x="676" y="50.3047"/><text fill="#000000" font-family="sans-serif" font-size="14" lengthAdjust="spacing" textLength="63" x="688" y="57.5332">String title</text><line style="stroke:#181818;stroke-width:0.5;" x1="669" x2="756" y1="64.6094" y2="64.6094"/></g><!--MD5=[ed2fc5c4a771128b6c6b2874ec3d6d45]
class DynamicMenu--><g id="elem_DynamicMenu"><rect codeLine="3" fill="#F1F1F1" height="48" id="DynamicMenu" rx="2.5" ry="2.5" style="stroke:#181818;stroke-width:0.5;" width="122" x="33.5" y="349"/><ellipse cx="48.5" cy="365" fill="#A9DCDF" rx="11" ry="11" style="stroke:#181818;stroke-width:1.0;"/><path d="M50.6875,366.7656 L46.5469,366.7656 L46.125,367.7969 L46.5469,367.7969 Q47.1563,367.7969 47.4219,368.0313 Q47.6875,368.2656 47.6875,368.6563 Q47.6875,369.0313 47.4219,369.2656 Q47.1563,369.5 46.5469,369.5 L44.25,369.5 Q43.6406,369.5 43.3828,369.2656 Q43.125,369.0313 43.125,368.6406 Q43.125,368.2656 43.3984,368.0234 Q43.6719,367.7813 44.2969,367.7969 L46.9688,361.1406 L45.8594,361.1406 Q45.25,361.1406 44.9844,360.9063 Q44.7188,360.6719 44.7188,360.2813 Q44.7188,359.9063 44.9844,359.6719 Q45.25,359.4375 45.8594,359.4375 L49.5313,359.4375 L52.9219,367.7969 Q53.5156,367.7969 53.7031,367.9375 Q54.0938,368.2031 54.0938,368.6563 Q54.0938,369.0313 53.8359,369.2656 Q53.5781,369.5 52.9688,369.5 L50.6719,369.5 Q50.0625,369.5 49.7969,369.2656 Q49.5313,369.0313 49.5313,368.6406 Q49.5313,368.2656 49.7969,368.0313 Q50.0625,367.7969 50.6719,367.7969 L51.0938,367.7969 L50.6875,366.7656 Z M49.9688,365.0625 L48.6094,361.6875 L47.2344,365.0625 L49.9688,365.0625 Z " fill="#000000"/><text fill="#000000" font-family="sans-serif" font-size="14" font-style="italic" lengthAdjust="spacing" textLength="90" x="62.5" y="370.7285">DynamicMenu</text><line style="stroke:#181818;stroke-width:0.5;" x1="34.5" x2="154.5" y1="381" y2="381"/><line style="stroke:#181818;stroke-width:0.5;" x1="34.5" x2="154.5" y1="389" y2="389"/></g><!--MD5=[1e1ab81ceca60840e21d95fa93f43ed6]
class IterativeMenu--><g id="elem_IterativeMenu"><rect codeLine="4" fill="#F1F1F1" height="48" id="IterativeMenu" rx="2.5" ry="2.5" style="stroke:#181818;stroke-width:0.5;" width="118" x="428.5" y="241"/><ellipse cx="443.5" cy="257" fill="#A9DCDF" rx="11" ry="11" style="stroke:#181818;stroke-width:1.0;"/><path d="M445.6875,258.7656 L441.5469,258.7656 L441.125,259.7969 L441.5469,259.7969 Q442.1563,259.7969 442.4219,260.0313 Q442.6875,260.2656 442.6875,260.6563 Q442.6875,261.0313 442.4219,261.2656 Q442.1563,261.5 441.5469,261.5 L439.25,261.5 Q438.6406,261.5 438.3828,261.2656 Q438.125,261.0313 438.125,260.6406 Q438.125,260.2656 438.3984,260.0234 Q438.6719,259.7813 439.2969,259.7969 L441.9688,253.1406 L440.8594,253.1406 Q440.25,253.1406 439.9844,252.9063 Q439.7188,252.6719 439.7188,252.2813 Q439.7188,251.9063 439.9844,251.6719 Q440.25,251.4375 440.8594,251.4375 L444.5313,251.4375 L447.9219,259.7969 Q448.5156,259.7969 448.7031,259.9375 Q449.0938,260.2031 449.0938,260.6563 Q449.0938,261.0313 448.8359,261.2656 Q448.5781,261.5 447.9688,261.5 L445.6719,261.5 Q445.0625,261.5 444.7969,261.2656 Q444.5313,261.0313 444.5313,260.6406 Q444.5313,260.2656 444.7969,260.0313 Q445.0625,259.7969 445.6719,259.7969 L446.0938,259.7969 L445.6875,258.7656 Z M444.9688,257.0625 L443.6094,253.6875 L442.2344,257.0625 L444.9688,257.0625 Z " fill="#000000"/><text fill="#000000" font-family="sans-serif" font-size="14" font-style="italic" lengthAdjust="spacing" textLength="86" x="457.5" y="262.7285">IterativeMenu</text><line style="stroke:#181818;stroke-width:0.5;" x1="429.5" x2="545.5" y1="273" y2="273"/><line style="stroke:#181818;stroke-width:0.5;" x1="429.5" x2="545.5" y1="281" y2="281"/></g><!--MD5=[9005bdc078c0a5e9ebdd6416d8bc3fc4]
class QuitMenu--><g id="elem_QuitMenu"><rect codeLine="5" fill="#F1F1F1" height="48" id="QuitMenu" rx="2.5" ry="2.5" style="stroke:#181818;stroke-width:0.5;" width="94" x="523.5" y="133"/><ellipse cx="538.5" cy="149" fill="#A9DCDF" rx="11" ry="11" style="stroke:#181818;stroke-width:1.0;"/><path d="M540.6875,150.7656 L536.5469,150.7656 L536.125,151.7969 L536.5469,151.7969 Q537.1563,151.7969 537.4219,152.0313 Q537.6875,152.2656 537.6875,152.6563 Q537.6875,153.0313 537.4219,153.2656 Q537.1563,153.5 536.5469,153.5 L534.25,153.5 Q533.6406,153.5 533.3828,153.2656 Q533.125,153.0313 533.125,152.6406 Q533.125,152.2656 533.3984,152.0234 Q533.6719,151.7813 534.2969,151.7969 L536.9688,145.1406 L535.8594,145.1406 Q535.25,145.1406 534.9844,144.9063 Q534.7188,144.6719 534.7188,144.2813 Q534.7188,143.9063 534.9844,143.6719 Q535.25,143.4375 535.8594,143.4375 L539.5313,143.4375 L542.9219,151.7969 Q543.5156,151.7969 543.7031,151.9375 Q544.0938,152.2031 544.0938,152.6563 Q544.0938,153.0313 543.8359,153.2656 Q543.5781,153.5 542.9688,153.5 L540.6719,153.5 Q540.0625,153.5 539.7969,153.2656 Q539.5313,153.0313 539.5313,152.6406 Q539.5313,152.2656 539.7969,152.0313 Q540.0625,151.7969 540.6719,151.7969 L541.0938,151.7969 L540.6875,150.7656 Z M539.9688,149.0625 L538.6094,145.6875 L537.2344,149.0625 L539.9688,149.0625 Z " fill="#000000"/><text fill="#000000" font-family="sans-serif" font-size="14" font-style="italic" lengthAdjust="spacing" textLength="62" x="552.5" y="154.7285">QuitMenu</text><line style="stroke:#181818;stroke-width:0.5;" x1="524.5" x2="616.5" y1="165" y2="165"/><line style="stroke:#181818;stroke-width:0.5;" x1="524.5" x2="616.5" y1="173" y2="173"/></g><!--MD5=[51db7c20ab219182e6e851dde63df4ce]
class ServicesContractMenu--><g id="elem_ServicesContractMenu"><rect codeLine="6" fill="#F1F1F1" height="48" id="ServicesContractMenu" rx="2.5" ry="2.5" style="stroke:#181818;stroke-width:0.5;" width="175" x="7" y="457"/><ellipse cx="22" cy="473" fill="#ADD1B2" rx="11" ry="11" style="stroke:#181818;stroke-width:1.0;"/><path d="M24.7656,468.875 Q24.9219,468.6563 25.1094,468.5469 Q25.2969,468.4375 25.5156,468.4375 Q25.8906,468.4375 26.125,468.6953 Q26.3594,468.9531 26.3594,469.5625 L26.3594,471.0156 Q26.3594,471.625 26.125,471.8906 Q25.8906,472.1563 25.5156,472.1563 Q25.1719,472.1563 24.9688,471.9531 Q24.7656,471.7656 24.6563,471.25 Q24.6094,470.8906 24.4219,470.7031 Q24.0938,470.3281 23.4844,470.1094 Q22.875,469.8906 22.25,469.8906 Q21.4844,469.8906 20.8516,470.2188 Q20.2188,470.5469 19.7266,471.2969 Q19.2344,472.0469 19.2344,473.0781 L19.2344,474.1719 Q19.2344,475.4063 20.125,476.2266 Q21.0156,477.0469 22.6094,477.0469 Q23.5469,477.0469 24.2031,476.7969 Q24.5938,476.6406 25.0156,476.2031 Q25.2813,475.9375 25.4297,475.8594 Q25.5781,475.7813 25.7813,475.7813 Q26.1094,475.7813 26.3672,476.0391 Q26.625,476.2969 26.625,476.6406 Q26.625,476.9844 26.2813,477.3906 Q25.7813,477.9688 24.9844,478.2969 Q23.9063,478.75 22.6094,478.75 Q21.0938,478.75 19.8906,478.125 Q18.9063,477.625 18.2188,476.5547 Q17.5313,475.4844 17.5313,474.2031 L17.5313,473.0469 Q17.5313,471.7188 18.1484,470.5703 Q18.7656,469.4219 19.8594,468.8047 Q20.9531,468.1875 22.1875,468.1875 Q22.9219,468.1875 23.5703,468.3516 Q24.2188,468.5156 24.7656,468.875 Z " fill="#000000"/><text fill="#000000" font-family="sans-serif" font-size="14" lengthAdjust="spacing" textLength="143" x="36" y="478.7285">ServicesContractMenu</text><line style="stroke:#181818;stroke-width:0.5;" x1="8" x2="181" y1="489" y2="489"/><line style="stroke:#181818;stroke-width:0.5;" x1="8" x2="181" y1="497" y2="497"/></g><!--MD5=[b07065dfc0d0e09965ec10bfc328bb3e]
class Option--><g id="elem_Option"><rect codeLine="7" fill="#F1F1F1" height="48" id="Option" rx="2.5" ry="2.5" style="stroke:#181818;stroke-width:0.5;" width="74" x="818.5" y="133"/><ellipse cx="833.5" cy="149" fill="#A9DCDF" rx="11" ry="11" style="stroke:#181818;stroke-width:1.0;"/><path d="M835.6875,150.7656 L831.5469,150.7656 L831.125,151.7969 L831.5469,151.7969 Q832.1563,151.7969 832.4219,152.0313 Q832.6875,152.2656 832.6875,152.6563 Q832.6875,153.0313 832.4219,153.2656 Q832.1563,153.5 831.5469,153.5 L829.25,153.5 Q828.6406,153.5 828.3828,153.2656 Q828.125,153.0313 828.125,152.6406 Q828.125,152.2656 828.3984,152.0234 Q828.6719,151.7813 829.2969,151.7969 L831.9688,145.1406 L830.8594,145.1406 Q830.25,145.1406 829.9844,144.9063 Q829.7188,144.6719 829.7188,144.2813 Q829.7188,143.9063 829.9844,143.6719 Q830.25,143.4375 830.8594,143.4375 L834.5313,143.4375 L837.9219,151.7969 Q838.5156,151.7969 838.7031,151.9375 Q839.0938,152.2031 839.0938,152.6563 Q839.0938,153.0313 838.8359,153.2656 Q838.5781,153.5 837.9688,153.5 L835.6719,153.5 Q835.0625,153.5 834.7969,153.2656 Q834.5313,153.0313 834.5313,152.6406 Q834.5313,152.2656 834.7969,152.0313 Q835.0625,151.7969 835.6719,151.7969 L836.0938,151.7969 L835.6875,150.7656 Z M834.9688,149.0625 L833.6094,145.6875 L832.2344,149.0625 L834.9688,149.0625 Z " fill="#000000"/><text fill="#000000" font-family="sans-serif" font-size="14" font-style="italic" lengthAdjust="spacing" textLength="42" x="847.5" y="154.7285">Option</text><line style="stroke:#181818;stroke-width:0.5;" x1="819.5" x2="891.5" y1="165" y2="165"/><line style="stroke:#181818;stroke-width:0.5;" x1="819.5" x2="891.5" y1="173" y2="173"/></g><!--MD5=[73f52c262fed881e4d6c63be947d9a43]
class ServicesContractOption--><g id="elem_ServicesContractOption"><rect codeLine="8" fill="#F1F1F1" height="48" id="ServicesContractOption" rx="2.5" ry="2.5" style="stroke:#181818;stroke-width:0.5;" width="181" x="849" y="241"/><ellipse cx="864" cy="257" fill="#A9DCDF" rx="11" ry="11" style="stroke:#181818;stroke-width:1.0;"/><path d="M866.1875,258.7656 L862.0469,258.7656 L861.625,259.7969 L862.0469,259.7969 Q862.6563,259.7969 862.9219,260.0313 Q863.1875,260.2656 863.1875,260.6563 Q863.1875,261.0313 862.9219,261.2656 Q862.6563,261.5 862.0469,261.5 L859.75,261.5 Q859.1406,261.5 858.8828,261.2656 Q858.625,261.0313 858.625,260.6406 Q858.625,260.2656 858.8984,260.0234 Q859.1719,259.7813 859.7969,259.7969 L862.4688,253.1406 L861.3594,253.1406 Q860.75,253.1406 860.4844,252.9063 Q860.2188,252.6719 860.2188,252.2813 Q860.2188,251.9063 860.4844,251.6719 Q860.75,251.4375 861.3594,251.4375 L865.0313,251.4375 L868.4219,259.7969 Q869.0156,259.7969 869.2031,259.9375 Q869.5938,260.2031 869.5938,260.6563 Q869.5938,261.0313 869.3359,261.2656 Q869.0781,261.5 868.4688,261.5 L866.1719,261.5 Q865.5625,261.5 865.2969,261.2656 Q865.0313,261.0313 865.0313,260.6406 Q865.0313,260.2656 865.2969,260.0313 Q865.5625,259.7969 866.1719,259.7969 L866.5938,259.7969 L866.1875,258.7656 Z M865.4688,257.0625 L864.1094,253.6875 L862.7344,257.0625 L865.4688,257.0625 Z " fill="#000000"/><text fill="#000000" font-family="sans-serif" font-size="14" font-style="italic" lengthAdjust="spacing" textLength="149" x="878" y="262.7285">ServicesContractOption</text><line style="stroke:#181818;stroke-width:0.5;" x1="850" x2="1029" y1="273" y2="273"/><line style="stroke:#181818;stroke-width:0.5;" x1="850" x2="1029" y1="281" y2="281"/></g><!--MD5=[ffe3c6f41a9673c08ef07fee83b4ceba]
class CancelServicesContractOption--><g id="elem_CancelServicesContractOption"><rect codeLine="9" fill="#F1F1F1" height="48" id="CancelServicesContractOption" rx="2.5" ry="2.5" style="stroke:#181818;stroke-width:0.5;" width="226" x="190.5" y="349"/><ellipse cx="205.5" cy="365" fill="#ADD1B2" rx="11" ry="11" style="stroke:#181818;stroke-width:1.0;"/><path d="M208.2656,360.875 Q208.4219,360.6563 208.6094,360.5469 Q208.7969,360.4375 209.0156,360.4375 Q209.3906,360.4375 209.625,360.6953 Q209.8594,360.9531 209.8594,361.5625 L209.8594,363.0156 Q209.8594,363.625 209.625,363.8906 Q209.3906,364.1563 209.0156,364.1563 Q208.6719,364.1563 208.4688,363.9531 Q208.2656,363.7656 208.1563,363.25 Q208.1094,362.8906 207.9219,362.7031 Q207.5938,362.3281 206.9844,362.1094 Q206.375,361.8906 205.75,361.8906 Q204.9844,361.8906 204.3516,362.2188 Q203.7188,362.5469 203.2266,363.2969 Q202.7344,364.0469 202.7344,365.0781 L202.7344,366.1719 Q202.7344,367.4063 203.625,368.2266 Q204.5156,369.0469 206.1094,369.0469 Q207.0469,369.0469 207.7031,368.7969 Q208.0938,368.6406 208.5156,368.2031 Q208.7813,367.9375 208.9297,367.8594 Q209.0781,367.7813 209.2813,367.7813 Q209.6094,367.7813 209.8672,368.0391 Q210.125,368.2969 210.125,368.6406 Q210.125,368.9844 209.7813,369.3906 Q209.2813,369.9688 208.4844,370.2969 Q207.4063,370.75 206.1094,370.75 Q204.5938,370.75 203.3906,370.125 Q202.4063,369.625 201.7188,368.5547 Q201.0313,367.4844 201.0313,366.2031 L201.0313,365.0469 Q201.0313,363.7188 201.6484,362.5703 Q202.2656,361.4219 203.3594,360.8047 Q204.4531,360.1875 205.6875,360.1875 Q206.4219,360.1875 207.0703,360.3516 Q207.7188,360.5156 208.2656,360.875 Z " fill="#000000"/><text fill="#000000" font-family="sans-serif" font-size="14" lengthAdjust="spacing" textLength="194" x="219.5" y="370.7285">CancelServicesContractOption</text><line style="stroke:#181818;stroke-width:0.5;" x1="191.5" x2="415.5" y1="381" y2="381"/><line style="stroke:#181818;stroke-width:0.5;" x1="191.5" x2="415.5" y1="389" y2="389"/></g><!--MD5=[012940348aa8c51abc7a9f57cf76ba49]
class CostServicesContractOption--><g id="elem_CostServicesContractOption"><rect codeLine="10" fill="#F1F1F1" height="48" id="CostServicesContractOption" rx="2.5" ry="2.5" style="stroke:#181818;stroke-width:0.5;" width="211" x="452" y="349"/><ellipse cx="467" cy="365" fill="#ADD1B2" rx="11" ry="11" style="stroke:#181818;stroke-width:1.0;"/><path d="M469.7656,360.875 Q469.9219,360.6563 470.1094,360.5469 Q470.2969,360.4375 470.5156,360.4375 Q470.8906,360.4375 471.125,360.6953 Q471.3594,360.9531 471.3594,361.5625 L471.3594,363.0156 Q471.3594,363.625 471.125,363.8906 Q470.8906,364.1563 470.5156,364.1563 Q470.1719,364.1563 469.9688,363.9531 Q469.7656,363.7656 469.6563,363.25 Q469.6094,362.8906 469.4219,362.7031 Q469.0938,362.3281 468.4844,362.1094 Q467.875,361.8906 467.25,361.8906 Q466.4844,361.8906 465.8516,362.2188 Q465.2188,362.5469 464.7266,363.2969 Q464.2344,364.0469 464.2344,365.0781 L464.2344,366.1719 Q464.2344,367.4063 465.125,368.2266 Q466.0156,369.0469 467.6094,369.0469 Q468.5469,369.0469 469.2031,368.7969 Q469.5938,368.6406 470.0156,368.2031 Q470.2813,367.9375 470.4297,367.8594 Q470.5781,367.7813 470.7813,367.7813 Q471.1094,367.7813 471.3672,368.0391 Q471.625,368.2969 471.625,368.6406 Q471.625,368.9844 471.2813,369.3906 Q470.7813,369.9688 469.9844,370.2969 Q468.9063,370.75 467.6094,370.75 Q466.0938,370.75 464.8906,370.125 Q463.9063,369.625 463.2188,368.5547 Q462.5313,367.4844 462.5313,366.2031 L462.5313,365.0469 Q462.5313,363.7188 463.1484,362.5703 Q463.7656,361.4219 464.8594,360.8047 Q465.9531,360.1875 467.1875,360.1875 Q467.9219,360.1875 468.5703,360.3516 Q469.2188,360.5156 469.7656,360.875 Z " fill="#000000"/><text fill="#000000" font-family="sans-serif" font-size="14" lengthAdjust="spacing" textLength="179" x="481" y="370.7285">CostServicesContractOption</text><line style="stroke:#181818;stroke-width:0.5;" x1="453" x2="662" y1="381" y2="381"/><line style="stroke:#181818;stroke-width:0.5;" x1="453" x2="662" y1="389" y2="389"/></g><!--MD5=[aa132e488f1c2275a019353053fd1aa3]
class EnlargeServicesContractOption--><g id="elem_EnlargeServicesContractOption"><rect codeLine="11" fill="#F1F1F1" height="48" id="EnlargeServicesContractOption" rx="2.5" ry="2.5" style="stroke:#181818;stroke-width:0.5;" width="231" x="698" y="349"/><ellipse cx="713" cy="365" fill="#ADD1B2" rx="11" ry="11" style="stroke:#181818;stroke-width:1.0;"/><path d="M715.7656,360.875 Q715.9219,360.6563 716.1094,360.5469 Q716.2969,360.4375 716.5156,360.4375 Q716.8906,360.4375 717.125,360.6953 Q717.3594,360.9531 717.3594,361.5625 L717.3594,363.0156 Q717.3594,363.625 717.125,363.8906 Q716.8906,364.1563 716.5156,364.1563 Q716.1719,364.1563 715.9688,363.9531 Q715.7656,363.7656 715.6563,363.25 Q715.6094,362.8906 715.4219,362.7031 Q715.0938,362.3281 714.4844,362.1094 Q713.875,361.8906 713.25,361.8906 Q712.4844,361.8906 711.8516,362.2188 Q711.2188,362.5469 710.7266,363.2969 Q710.2344,364.0469 710.2344,365.0781 L710.2344,366.1719 Q710.2344,367.4063 711.125,368.2266 Q712.0156,369.0469 713.6094,369.0469 Q714.5469,369.0469 715.2031,368.7969 Q715.5938,368.6406 716.0156,368.2031 Q716.2813,367.9375 716.4297,367.8594 Q716.5781,367.7813 716.7813,367.7813 Q717.1094,367.7813 717.3672,368.0391 Q717.625,368.2969 717.625,368.6406 Q717.625,368.9844 717.2813,369.3906 Q716.7813,369.9688 715.9844,370.2969 Q714.9063,370.75 713.6094,370.75 Q712.0938,370.75 710.8906,370.125 Q709.9063,369.625 709.2188,368.5547 Q708.5313,367.4844 708.5313,366.2031 L708.5313,365.0469 Q708.5313,363.7188 709.1484,362.5703 Q709.7656,361.4219 710.8594,360.8047 Q711.9531,360.1875 713.1875,360.1875 Q713.9219,360.1875 714.5703,360.3516 Q715.2188,360.5156 715.7656,360.875 Z " fill="#000000"/><text fill="#000000" font-family="sans-serif" font-size="14" lengthAdjust="spacing" textLength="199" x="727" y="370.7285">EnlargeServicesContractOption</text><line style="stroke:#181818;stroke-width:0.5;" x1="699" x2="928" y1="381" y2="381"/><line style="stroke:#181818;stroke-width:0.5;" x1="699" x2="928" y1="389" y2="389"/></g><!--MD5=[4eb8a18a3fb2316b166c65e1ee9e87c5]
class ListServicesContractOption--><g id="elem_ListServicesContractOption"><rect codeLine="12" fill="#F1F1F1" height="48" id="ListServicesContractOption" rx="2.5" ry="2.5" style="stroke:#181818;stroke-width:0.5;" width="204" x="964.5" y="349"/><ellipse cx="979.5" cy="365" fill="#ADD1B2" rx="11" ry="11" style="stroke:#181818;stroke-width:1.0;"/><path d="M982.2656,360.875 Q982.4219,360.6563 982.6094,360.5469 Q982.7969,360.4375 983.0156,360.4375 Q983.3906,360.4375 983.625,360.6953 Q983.8594,360.9531 983.8594,361.5625 L983.8594,363.0156 Q983.8594,363.625 983.625,363.8906 Q983.3906,364.1563 983.0156,364.1563 Q982.6719,364.1563 982.4688,363.9531 Q982.2656,363.7656 982.1563,363.25 Q982.1094,362.8906 981.9219,362.7031 Q981.5938,362.3281 980.9844,362.1094 Q980.375,361.8906 979.75,361.8906 Q978.9844,361.8906 978.3516,362.2188 Q977.7188,362.5469 977.2266,363.2969 Q976.7344,364.0469 976.7344,365.0781 L976.7344,366.1719 Q976.7344,367.4063 977.625,368.2266 Q978.5156,369.0469 980.1094,369.0469 Q981.0469,369.0469 981.7031,368.7969 Q982.0938,368.6406 982.5156,368.2031 Q982.7813,367.9375 982.9297,367.8594 Q983.0781,367.7813 983.2813,367.7813 Q983.6094,367.7813 983.8672,368.0391 Q984.125,368.2969 984.125,368.6406 Q984.125,368.9844 983.7813,369.3906 Q983.2813,369.9688 982.4844,370.2969 Q981.4063,370.75 980.1094,370.75 Q978.5938,370.75 977.3906,370.125 Q976.4063,369.625 975.7188,368.5547 Q975.0313,367.4844 975.0313,366.2031 L975.0313,365.0469 Q975.0313,363.7188 975.6484,362.5703 Q976.2656,361.4219 977.3594,360.8047 Q978.4531,360.1875 979.6875,360.1875 Q980.4219,360.1875 981.0703,360.3516 Q981.7188,360.5156 982.2656,360.875 Z " fill="#000000"/><text fill="#000000" font-family="sans-serif" font-size="14" lengthAdjust="spacing" textLength="172" x="993.5" y="370.7285">ListServicesContractOption</text><line style="stroke:#181818;stroke-width:0.5;" x1="965.5" x2="1167.5" y1="381" y2="381"/><line style="stroke:#181818;stroke-width:0.5;" x1="965.5" x2="1167.5" y1="389" y2="389"/></g><!--MD5=[f9715a46e3f18ab3599c7a3a62896827]
class PrintServicesContractOption--><g id="elem_PrintServicesContractOption"><rect codeLine="13" fill="#F1F1F1" height="48" id="PrintServicesContractOption" rx="2.5" ry="2.5" style="stroke:#181818;stroke-width:0.5;" width="211" x="1204" y="349"/><ellipse cx="1219" cy="365" fill="#ADD1B2" rx="11" ry="11" style="stroke:#181818;stroke-width:1.0;"/><path d="M1221.7656,360.875 Q1221.9219,360.6563 1222.1094,360.5469 Q1222.2969,360.4375 1222.5156,360.4375 Q1222.8906,360.4375 1223.125,360.6953 Q1223.3594,360.9531 1223.3594,361.5625 L1223.3594,363.0156 Q1223.3594,363.625 1223.125,363.8906 Q1222.8906,364.1563 1222.5156,364.1563 Q1222.1719,364.1563 1221.9688,363.9531 Q1221.7656,363.7656 1221.6563,363.25 Q1221.6094,362.8906 1221.4219,362.7031 Q1221.0938,362.3281 1220.4844,362.1094 Q1219.875,361.8906 1219.25,361.8906 Q1218.4844,361.8906 1217.8516,362.2188 Q1217.2188,362.5469 1216.7266,363.2969 Q1216.2344,364.0469 1216.2344,365.0781 L1216.2344,366.1719 Q1216.2344,367.4063 1217.125,368.2266 Q1218.0156,369.0469 1219.6094,369.0469 Q1220.5469,369.0469 1221.2031,368.7969 Q1221.5938,368.6406 1222.0156,368.2031 Q1222.2813,367.9375 1222.4297,367.8594 Q1222.5781,367.7813 1222.7813,367.7813 Q1223.1094,367.7813 1223.3672,368.0391 Q1223.625,368.2969 1223.625,368.6406 Q1223.625,368.9844 1223.2813,369.3906 Q1222.7813,369.9688 1221.9844,370.2969 Q1220.9063,370.75 1219.6094,370.75 Q1218.0938,370.75 1216.8906,370.125 Q1215.9063,369.625 1215.2188,368.5547 Q1214.5313,367.4844 1214.5313,366.2031 L1214.5313,365.0469 Q1214.5313,363.7188 1215.1484,362.5703 Q1215.7656,361.4219 1216.8594,360.8047 Q1217.9531,360.1875 1219.1875,360.1875 Q1219.9219,360.1875 1220.5703,360.3516 Q1221.2188,360.5156 1221.7656,360.875 Z " fill="#000000"/><text fill="#000000" font-family="sans-serif" font-size="14" lengthAdjust="spacing" textLength="179" x="1233" y="370.7285">PrintServicesContractOption</text><line style="stroke:#181818;stroke-width:0.5;" x1="1205" x2="1414" y1="381" y2="381"/><line style="stroke:#181818;stroke-width:0.5;" x1="1205" x2="1414" y1="389" y2="389"/></g><!--MD5=[6b47e3cea4714c2ec513c2837af846f7]
class QuitOption--><g id="elem_QuitOption"><rect codeLine="14" fill="#F1F1F1" height="48" id="QuitOption" rx="2.5" ry="2.5" style="stroke:#181818;stroke-width:0.5;" width="100" x="1450.5" y="349"/><ellipse cx="1465.5" cy="365" fill="#ADD1B2" rx="11" ry="11" style="stroke:#181818;stroke-width:1.0;"/><path d="M1468.2656,360.875 Q1468.4219,360.6563 1468.6094,360.5469 Q1468.7969,360.4375 1469.0156,360.4375 Q1469.3906,360.4375 1469.625,360.6953 Q1469.8594,360.9531 1469.8594,361.5625 L1469.8594,363.0156 Q1469.8594,363.625 1469.625,363.8906 Q1469.3906,364.1563 1469.0156,364.1563 Q1468.6719,364.1563 1468.4688,363.9531 Q1468.2656,363.7656 1468.1563,363.25 Q1468.1094,362.8906 1467.9219,362.7031 Q1467.5938,362.3281 1466.9844,362.1094 Q1466.375,361.8906 1465.75,361.8906 Q1464.9844,361.8906 1464.3516,362.2188 Q1463.7188,362.5469 1463.2266,363.2969 Q1462.7344,364.0469 1462.7344,365.0781 L1462.7344,366.1719 Q1462.7344,367.4063 1463.625,368.2266 Q1464.5156,369.0469 1466.1094,369.0469 Q1467.0469,369.0469 1467.7031,368.7969 Q1468.0938,368.6406 1468.5156,368.2031 Q1468.7813,367.9375 1468.9297,367.8594 Q1469.0781,367.7813 1469.2813,367.7813 Q1469.6094,367.7813 1469.8672,368.0391 Q1470.125,368.2969 1470.125,368.6406 Q1470.125,368.9844 1469.7813,369.3906 Q1469.2813,369.9688 1468.4844,370.2969 Q1467.4063,370.75 1466.1094,370.75 Q1464.5938,370.75 1463.3906,370.125 Q1462.4063,369.625 1461.7188,368.5547 Q1461.0313,367.4844 1461.0313,366.2031 L1461.0313,365.0469 Q1461.0313,363.7188 1461.6484,362.5703 Q1462.2656,361.4219 1463.3594,360.8047 Q1464.4531,360.1875 1465.6875,360.1875 Q1466.4219,360.1875 1467.0703,360.3516 Q1467.7188,360.5156 1468.2656,360.875 Z " fill="#000000"/><text fill="#000000" font-family="sans-serif" font-size="14" lengthAdjust="spacing" textLength="68" x="1479.5" y="370.7285">QuitOption</text><line style="stroke:#181818;stroke-width:0.5;" x1="1451.5" x2="1549.5" y1="381" y2="381"/><line style="stroke:#181818;stroke-width:0.5;" x1="1451.5" x2="1549.5" y1="389" y2="389"/></g><!--MD5=[c480363f1059a5818dbe08dad55e70f5]
class ShiftServicesContractOption--><g id="elem_ShiftServicesContractOption"><rect codeLine="15" fill="#F1F1F1" height="48" id="ShiftServicesContractOption" rx="2.5" ry="2.5" style="stroke:#181818;stroke-width:0.5;" width="210" x="1585.5" y="349"/><ellipse cx="1600.5" cy="365" fill="#ADD1B2" rx="11" ry="11" style="stroke:#181818;stroke-width:1.0;"/><path d="M1603.2656,360.875 Q1603.4219,360.6563 1603.6094,360.5469 Q1603.7969,360.4375 1604.0156,360.4375 Q1604.3906,360.4375 1604.625,360.6953 Q1604.8594,360.9531 1604.8594,361.5625 L1604.8594,363.0156 Q1604.8594,363.625 1604.625,363.8906 Q1604.3906,364.1563 1604.0156,364.1563 Q1603.6719,364.1563 1603.4688,363.9531 Q1603.2656,363.7656 1603.1563,363.25 Q1603.1094,362.8906 1602.9219,362.7031 Q1602.5938,362.3281 1601.9844,362.1094 Q1601.375,361.8906 1600.75,361.8906 Q1599.9844,361.8906 1599.3516,362.2188 Q1598.7188,362.5469 1598.2266,363.2969 Q1597.7344,364.0469 1597.7344,365.0781 L1597.7344,366.1719 Q1597.7344,367.4063 1598.625,368.2266 Q1599.5156,369.0469 1601.1094,369.0469 Q1602.0469,369.0469 1602.7031,368.7969 Q1603.0938,368.6406 1603.5156,368.2031 Q1603.7813,367.9375 1603.9297,367.8594 Q1604.0781,367.7813 1604.2813,367.7813 Q1604.6094,367.7813 1604.8672,368.0391 Q1605.125,368.2969 1605.125,368.6406 Q1605.125,368.9844 1604.7813,369.3906 Q1604.2813,369.9688 1603.4844,370.2969 Q1602.4063,370.75 1601.1094,370.75 Q1599.5938,370.75 1598.3906,370.125 Q1597.4063,369.625 1596.7188,368.5547 Q1596.0313,367.4844 1596.0313,366.2031 L1596.0313,365.0469 Q1596.0313,363.7188 1596.6484,362.5703 Q1597.2656,361.4219 1598.3594,360.8047 Q1599.4531,360.1875 1600.6875,360.1875 Q1601.4219,360.1875 1602.0703,360.3516 Q1602.7188,360.5156 1603.2656,360.875 Z " fill="#000000"/><text fill="#000000" font-family="sans-serif" font-size="14" lengthAdjust="spacing" textLength="178" x="1614.5" y="370.7285">ShiftServicesContractOption</text><line style="stroke:#181818;stroke-width:0.5;" x1="1586.5" x2="1794.5" y1="381" y2="381"/><line style="stroke:#181818;stroke-width:0.5;" x1="1586.5" x2="1794.5" y1="389" y2="389"/></g><!--MD5=[7829b64950ce38e0487c4015ea331f97]
class Date--><g id="elem_Date"><rect codeLine="16" fill="#F1F1F1" height="48" id="Date" rx="2.5" ry="2.5" style="stroke:#181818;stroke-width:0.5;" width="62" x="299.5" y="16"/><ellipse cx="314.5" cy="32" fill="#ADD1B2" rx="11" ry="11" style="stroke:#181818;stroke-width:1.0;"/><path d="M317.2656,27.875 Q317.4219,27.6563 317.6094,27.5469 Q317.7969,27.4375 318.0156,27.4375 Q318.3906,27.4375 318.625,27.6953 Q318.8594,27.9531 318.8594,28.5625 L318.8594,30.0156 Q318.8594,30.625 318.625,30.8906 Q318.3906,31.1563 318.0156,31.1563 Q317.6719,31.1563 317.4688,30.9531 Q317.2656,30.7656 317.1563,30.25 Q317.1094,29.8906 316.9219,29.7031 Q316.5938,29.3281 315.9844,29.1094 Q315.375,28.8906 314.75,28.8906 Q313.9844,28.8906 313.3516,29.2188 Q312.7188,29.5469 312.2266,30.2969 Q311.7344,31.0469 311.7344,32.0781 L311.7344,33.1719 Q311.7344,34.4063 312.625,35.2266 Q313.5156,36.0469 315.1094,36.0469 Q316.0469,36.0469 316.7031,35.7969 Q317.0938,35.6406 317.5156,35.2031 Q317.7813,34.9375 317.9297,34.8594 Q318.0781,34.7813 318.2813,34.7813 Q318.6094,34.7813 318.8672,35.0391 Q319.125,35.2969 319.125,35.6406 Q319.125,35.9844 318.7813,36.3906 Q318.2813,36.9688 317.4844,37.2969 Q316.4063,37.75 315.1094,37.75 Q313.5938,37.75 312.3906,37.125 Q311.4063,36.625 310.7188,35.5547 Q310.0313,34.4844 310.0313,33.2031 L310.0313,32.0469 Q310.0313,30.7188 310.6484,29.5703 Q311.2656,28.4219 312.3594,27.8047 Q313.4531,27.1875 314.6875,27.1875 Q315.4219,27.1875 316.0703,27.3516 Q316.7188,27.5156 317.2656,27.875 Z " fill="#000000"/><text fill="#000000" font-family="sans-serif" font-size="14" lengthAdjust="spacing" textLength="30" x="328.5" y="37.7285">Date</text><line style="stroke:#181818;stroke-width:0.5;" x1="300.5" x2="360.5" y1="48" y2="48"/><line style="stroke:#181818;stroke-width:0.5;" x1="300.5" x2="360.5" y1="56" y2="56"/></g><!--MD5=[1c40a9495d7098c3b845044b099123dc]
class Month--><g id="elem_Month"><rect codeLine="17" fill="#F1F1F1" height="48" id="Month" rx="2.5" ry="2.5" style="stroke:#181818;stroke-width:0.5;" width="71" x="397" y="16"/><ellipse cx="412" cy="32" fill="#ADD1B2" rx="11" ry="11" style="stroke:#181818;stroke-width:1.0;"/><path d="M414.7656,27.875 Q414.9219,27.6563 415.1094,27.5469 Q415.2969,27.4375 415.5156,27.4375 Q415.8906,27.4375 416.125,27.6953 Q416.3594,27.9531 416.3594,28.5625 L416.3594,30.0156 Q416.3594,30.625 416.125,30.8906 Q415.8906,31.1563 415.5156,31.1563 Q415.1719,31.1563 414.9688,30.9531 Q414.7656,30.7656 414.6563,30.25 Q414.6094,29.8906 414.4219,29.7031 Q414.0938,29.3281 413.4844,29.1094 Q412.875,28.8906 412.25,28.8906 Q411.4844,28.8906 410.8516,29.2188 Q410.2188,29.5469 409.7266,30.2969 Q409.2344,31.0469 409.2344,32.0781 L409.2344,33.1719 Q409.2344,34.4063 410.125,35.2266 Q411.0156,36.0469 412.6094,36.0469 Q413.5469,36.0469 414.2031,35.7969 Q414.5938,35.6406 415.0156,35.2031 Q415.2813,34.9375 415.4297,34.8594 Q415.5781,34.7813 415.7813,34.7813 Q416.1094,34.7813 416.3672,35.0391 Q416.625,35.2969 416.625,35.6406 Q416.625,35.9844 416.2813,36.3906 Q415.7813,36.9688 414.9844,37.2969 Q413.9063,37.75 412.6094,37.75 Q411.0938,37.75 409.8906,37.125 Q408.9063,36.625 408.2188,35.5547 Q407.5313,34.4844 407.5313,33.2031 L407.5313,32.0469 Q407.5313,30.7188 408.1484,29.5703 Q408.7656,28.4219 409.8594,27.8047 Q410.9531,27.1875 412.1875,27.1875 Q412.9219,27.1875 413.5703,27.3516 Q414.2188,27.5156 414.7656,27.875 Z " fill="#000000"/><text fill="#000000" font-family="sans-serif" font-size="14" lengthAdjust="spacing" textLength="39" x="426" y="37.7285">Month</text><line style="stroke:#181818;stroke-width:0.5;" x1="398" x2="467" y1="48" y2="48"/><line style="stroke:#181818;stroke-width:0.5;" x1="398" x2="467" y1="56" y2="56"/></g><!--MD5=[f144808e0e29279a3117e64f7a82a4df]
class Format--><g id="elem_Format"><rect codeLine="18" fill="#F1F1F1" height="48" id="Format" rx="2.5" ry="2.5" style="stroke:#181818;stroke-width:0.5;" width="77" x="292" y="133"/><ellipse cx="307" cy="149" fill="#ADD1B2" rx="11" ry="11" style="stroke:#181818;stroke-width:1.0;"/><path d="M309.7656,144.875 Q309.9219,144.6563 310.1094,144.5469 Q310.2969,144.4375 310.5156,144.4375 Q310.8906,144.4375 311.125,144.6953 Q311.3594,144.9531 311.3594,145.5625 L311.3594,147.0156 Q311.3594,147.625 311.125,147.8906 Q310.8906,148.1563 310.5156,148.1563 Q310.1719,148.1563 309.9688,147.9531 Q309.7656,147.7656 309.6563,147.25 Q309.6094,146.8906 309.4219,146.7031 Q309.0938,146.3281 308.4844,146.1094 Q307.875,145.8906 307.25,145.8906 Q306.4844,145.8906 305.8516,146.2188 Q305.2188,146.5469 304.7266,147.2969 Q304.2344,148.0469 304.2344,149.0781 L304.2344,150.1719 Q304.2344,151.4063 305.125,152.2266 Q306.0156,153.0469 307.6094,153.0469 Q308.5469,153.0469 309.2031,152.7969 Q309.5938,152.6406 310.0156,152.2031 Q310.2813,151.9375 310.4297,151.8594 Q310.5781,151.7813 310.7813,151.7813 Q311.1094,151.7813 311.3672,152.0391 Q311.625,152.2969 311.625,152.6406 Q311.625,152.9844 311.2813,153.3906 Q310.7813,153.9688 309.9844,154.2969 Q308.9063,154.75 307.6094,154.75 Q306.0938,154.75 304.8906,154.125 Q303.9063,153.625 303.2188,152.5547 Q302.5313,151.4844 302.5313,150.2031 L302.5313,149.0469 Q302.5313,147.7188 303.1484,146.5703 Q303.7656,145.4219 304.8594,144.8047 Q305.9531,144.1875 307.1875,144.1875 Q307.9219,144.1875 308.5703,144.3516 Q309.2188,144.5156 309.7656,144.875 Z " fill="#000000"/><text fill="#000000" font-family="sans-serif" font-size="14" lengthAdjust="spacing" textLength="45" x="321" y="154.7285">Format</text><line style="stroke:#181818;stroke-width:0.5;" x1="293" x2="368" y1="165" y2="165"/><line style="stroke:#181818;stroke-width:0.5;" x1="293" x2="368" y1="173" y2="173"/></g><!--MD5=[315b61b427ec618d6861d47eee00cca3]
class Console--><g id="elem_Console"><rect codeLine="19" fill="#F1F1F1" height="48" id="Console" rx="2.5" ry="2.5" style="stroke:#181818;stroke-width:0.5;" width="84" x="404.5" y="133"/><ellipse cx="419.5" cy="149" fill="#ADD1B2" rx="11" ry="11" style="stroke:#181818;stroke-width:1.0;"/><path d="M422.2656,144.875 Q422.4219,144.6563 422.6094,144.5469 Q422.7969,144.4375 423.0156,144.4375 Q423.3906,144.4375 423.625,144.6953 Q423.8594,144.9531 423.8594,145.5625 L423.8594,147.0156 Q423.8594,147.625 423.625,147.8906 Q423.3906,148.1563 423.0156,148.1563 Q422.6719,148.1563 422.4688,147.9531 Q422.2656,147.7656 422.1563,147.25 Q422.1094,146.8906 421.9219,146.7031 Q421.5938,146.3281 420.9844,146.1094 Q420.375,145.8906 419.75,145.8906 Q418.9844,145.8906 418.3516,146.2188 Q417.7188,146.5469 417.2266,147.2969 Q416.7344,148.0469 416.7344,149.0781 L416.7344,150.1719 Q416.7344,151.4063 417.625,152.2266 Q418.5156,153.0469 420.1094,153.0469 Q421.0469,153.0469 421.7031,152.7969 Q422.0938,152.6406 422.5156,152.2031 Q422.7813,151.9375 422.9297,151.8594 Q423.0781,151.7813 423.2813,151.7813 Q423.6094,151.7813 423.8672,152.0391 Q424.125,152.2969 424.125,152.6406 Q424.125,152.9844 423.7813,153.3906 Q423.2813,153.9688 422.4844,154.2969 Q421.4063,154.75 420.1094,154.75 Q418.5938,154.75 417.3906,154.125 Q416.4063,153.625 415.7188,152.5547 Q415.0313,151.4844 415.0313,150.2031 L415.0313,149.0469 Q415.0313,147.7188 415.6484,146.5703 Q416.2656,145.4219 417.3594,144.8047 Q418.4531,144.1875 419.6875,144.1875 Q420.4219,144.1875 421.0703,144.3516 Q421.7188,144.5156 422.2656,144.875 Z " fill="#000000"/><text fill="#000000" font-family="sans-serif" font-size="14" lengthAdjust="spacing" textLength="52" x="433.5" y="154.7285">Console</text><line style="stroke:#181818;stroke-width:0.5;" x1="405.5" x2="487.5" y1="165" y2="165"/><line style="stroke:#181818;stroke-width:0.5;" x1="405.5" x2="487.5" y1="173" y2="173"/></g><!--MD5=[832c43ad4608679533f7d2b6bfc262d7]
reverse link Option to ServicesContractOption--><g id="link_Option_ServicesContractOption"><path codeLine="21" d="M886.17,196.7 C897.86,211.45 910.81,227.79 921.02,240.68 " fill="none" id="Option-backto-ServicesContractOption" style="stroke:#181818;stroke-width:1.0;stroke-dasharray:7.0,7.0;"/><polygon fill="none" points="880.66,201.02,873.73,181,891.63,192.33,880.66,201.02" style="stroke:#181818;stroke-width:1.0;"/></g><!--MD5=[94fd0e4cb46c6b6f36a30ef7e92998c3]
reverse link ServicesContractOption to CancelServicesContractOption--><g id="link_ServicesContractOption_CancelServicesContractOption"><path codeLine="23" d="M828.63,283.87 C726.28,300.44 570.06,325.96 434.5,349 C428.7,349.99 422.75,351 416.74,352.04 " fill="none" id="ServicesContractOption-backto-CancelServicesContractOption" style="stroke:#181818;stroke-width:1.0;stroke-dasharray:7.0,7.0;"/><polygon fill="none" points="827.82,276.91,848.68,280.62,830.06,290.73,827.82,276.91" style="stroke:#181818;stroke-width:1.0;"/></g><!--MD5=[6ccc172441e238268017d8e0162207c2]
reverse link ServicesContractOption to CostServicesContractOption--><g id="link_ServicesContractOption_CostServicesContractOption"><path codeLine="24" d="M837.23,294.38 C775.67,311.46 698.31,332.93 640.56,348.95 " fill="none" id="ServicesContractOption-backto-CostServicesContractOption" style="stroke:#181818;stroke-width:1.0;stroke-dasharray:7.0,7.0;"/><polygon fill="none" points="835.47,287.6,856.61,289,839.21,301.09,835.47,287.6" style="stroke:#181818;stroke-width:1.0;"/></g><!--MD5=[354bcfa8b67ffac85ab4dd24014f3169]
reverse link ServicesContractOption to EnlargeServicesContractOption--><g id="link_ServicesContractOption_EnlargeServicesContractOption"><path codeLine="25" d="M896.58,302.1 C878.28,317.5 857.45,335.03 841.22,348.68 " fill="none" id="ServicesContractOption-backto-EnlargeServicesContractOption" style="stroke:#181818;stroke-width:1.0;stroke-dasharray:7.0,7.0;"/><polygon fill="none" points="892.35,296.52,912.16,289,901.36,307.23,892.35,296.52" style="stroke:#181818;stroke-width:1.0;"/></g><!--MD5=[e64ea802d749aa14fd5c80b78b6ba804]
reverse link ServicesContractOption to ListServicesContractOption--><g id="link_ServicesContractOption_ListServicesContractOption"><path codeLine="26" d="M982.48,301.87 C1000.99,317.33 1022.12,334.96 1038.56,348.68 " fill="none" id="ServicesContractOption-backto-ListServicesContractOption" style="stroke:#181818;stroke-width:1.0;stroke-dasharray:7.0,7.0;"/><polygon fill="none" points="977.93,307.19,967.06,289,986.9,296.44,977.93,307.19" style="stroke:#181818;stroke-width:1.0;"/></g><!--MD5=[70fe4fc35eafa07be3a1e93d4e62eda7]
reverse link ServicesContractOption to PrintServicesContractOption--><g id="link_ServicesContractOption_PrintServicesContractOption"><path codeLine="27" d="M1039.34,294.6 C1098.83,311.65 1173.35,333 1229.05,348.95 " fill="none" id="ServicesContractOption-backto-PrintServicesContractOption" style="stroke:#181818;stroke-width:1.0;stroke-dasharray:7.0,7.0;"/><polygon fill="none" points="1037.08,301.24,1019.78,289,1040.94,287.78,1037.08,301.24" style="stroke:#181818;stroke-width:1.0;"/></g><!--MD5=[2b4bc17292dfa6d6af5f66d9e4f2200e]
reverse link ServicesContractOption to QuitOption--><g id="link_ServicesContractOption_QuitOption"><path codeLine="28" d="M1050.39,279.52 C1151,293.01 1302.96,316.41 1432.5,349 C1438.3,350.46 1444.32,352.18 1450.26,354.01 " fill="none" id="ServicesContractOption-backto-QuitOption" style="stroke:#181818;stroke-width:1.0;stroke-dasharray:7.0,7.0;"/><polygon fill="none" points="1049.27,286.44,1030.36,276.88,1051.1,272.56,1049.27,286.44" style="stroke:#181818;stroke-width:1.0;"/></g><!--MD5=[30a836ad63a9ef5ca1c8d2c7929b15c4]
reverse link ServicesContractOption to ShiftServicesContractOption--><g id="link_ServicesContractOption_ShiftServicesContractOption"><path codeLine="29" d="M1050.29,278.75 C1176.15,293.66 1387.56,320.03 1568.5,349 C1574.03,349.89 1579.7,350.83 1585.42,351.81 " fill="none" id="ServicesContractOption-backto-ShiftServicesContractOption" style="stroke:#181818;stroke-width:1.0;stroke-dasharray:7.0,7.0;"/><polygon fill="none" points="1049.13,285.66,1030.09,276.36,1050.77,271.75,1049.13,285.66" style="stroke:#181818;stroke-width:1.0;"/></g><!--MD5=[c52369193743697ab0ec078a44f89d59]
reverse link Menu to QuitMenu--><g id="link_Menu_QuitMenu"><path codeLine="37" d="M657.16,85.82 C637.29,101.91 615.7,119.39 599.04,132.89 " fill="none" id="Menu-backto-QuitMenu" style="stroke:#181818;stroke-width:1.0;stroke-dasharray:7.0,7.0;"/><polygon fill="none" points="653,80.18,672.95,73.03,661.81,91.06,653,80.18" style="stroke:#181818;stroke-width:1.0;"/></g><!--MD5=[1643475386723689b4d5830d3227cfb1]
reverse link QuitMenu to IterativeMenu--><g id="link_QuitMenu_IterativeMenu"><path codeLine="38" d="M539.82,197.18 C528.37,211.8 515.74,227.93 505.76,240.68 " fill="none" id="QuitMenu-backto-IterativeMenu" style="stroke:#181818;stroke-width:1.0;stroke-dasharray:7.0,7.0;"/><polygon fill="none" points="534.65,192.43,552.49,181,545.67,201.06,534.65,192.43" style="stroke:#181818;stroke-width:1.0;"/></g><!--MD5=[3f4a805937588ed106490376110a0d24]
reverse link IterativeMenu to DynamicMenu--><g id="link_IterativeMenu_DynamicMenu"><path codeLine="39" d="M408.76,286.07 C344.94,302.5 252.74,326.6 172.5,349 C167.06,350.52 161.42,352.12 155.77,353.75 " fill="none" id="IterativeMenu-backto-DynamicMenu" style="stroke:#181818;stroke-width:1.0;stroke-dasharray:7.0,7.0;"/><polygon fill="none" points="407.32,279.21,428.43,281.02,410.8,292.77,407.32,279.21" style="stroke:#181818;stroke-width:1.0;"/></g><!--MD5=[b9cf420391b7d6191d0c7165e845df19]
reverse link DynamicMenu to ServicesContractMenu--><g id="link_DynamicMenu_ServicesContractMenu"><path codeLine="40" d="M94.5,417.02 C94.5,430.58 94.5,445.04 94.5,456.68 " fill="none" id="DynamicMenu-backto-ServicesContractMenu" style="stroke:#181818;stroke-width:1.0;stroke-dasharray:7.0,7.0;"/><polygon fill="none" points="87.5,417,94.5,397,101.5,417,87.5,417" style="stroke:#181818;stroke-width:1.0;"/></g><!--MD5=[8daeaf3eedd6c08a0f80d4a90846b3b4]
link Menu to Option--><g id="link_Menu_Option"><path codeLine="43" d="M752.33,73.03 C774.49,90.85 801.73,112.76 822.66,129.59 " fill="none" id="Menu-to-Option" style="stroke:#181818;stroke-width:1.0;"/><polygon fill="#181818" points="826.76,132.89,822.2622,124.1282,822.8668,129.7526,817.2424,130.3573,826.76,132.89" style="stroke:#181818;stroke-width:1.0;"/><text fill="#000000" font-family="sans-serif" font-size="13" lengthAdjust="spacing" textLength="20" x="796.8329" y="122.202">0..*</text></g><!--MD5=[f7db90a857dc88fcf6ba3fe517c2091c]
link ServicesContractMenu to ServicesContract--><g id="link_ServicesContractMenu_ServicesContract"><path codeLine="44" d="M94.5,505 C94.5,521 94.5,542.45 94.5,559.53 " fill="none" id="ServicesContractMenu-to-ServicesContract" style="stroke:#181818;stroke-width:1.0;"/><polygon fill="#181818" points="94.5,564.68,98.5,555.68,94.5,559.68,90.5,555.68,94.5,564.68" style="stroke:#181818;stroke-width:1.0;"/></g><!--MD5=[621925e18b590bf134d50685bf7cb887]
@startuml
class ServicesContract
abstract class Menu
abstract class DynamicMenu
abstract class IterativeMenu
abstract class QuitMenu
class ServicesContractMenu
abstract class Option
abstract class ServicesContractOption
class CancelServicesContractOption
class CostServicesContractOption
class EnlargeServicesContractOption
class ListServicesContractOption
class PrintServicesContractOption
class QuitOption
class ShiftServicesContractOption
class Date
class Month
class Format
class Console

Option <|.. ServicesContractOption

ServicesContractOption <|.. CancelServicesContractOption
ServicesContractOption <|.. CostServicesContractOption
ServicesContractOption <|.. EnlargeServicesContractOption
ServicesContractOption <|.. ListServicesContractOption
ServicesContractOption <|.. PrintServicesContractOption 
ServicesContractOption <|.. QuitOption 
ServicesContractOption <|.. ShiftServicesContractOption 


class Menu {
 - String title
}


Menu <|.. QuitMenu
QuitMenu <|.. IterativeMenu
IterativeMenu <|.. DynamicMenu
DynamicMenu <|.. ServicesContractMenu 


Menu - ->"0..*" Option
ServicesContractMenu - -> ServicesContract

@enduml

PlantUML version 1.2022.7(Mon Aug 22 19:01:30 CEST 2022)
(GPL source distribution)
Java Runtime: Java(TM) SE Runtime Environment
JVM: Java HotSpot(TM) 64-Bit Server VM
Default Encoding: Cp1252
Language: es
Country: ES
--></g></svg>