<?xml version="1.0" encoding="UTF-8" standalone="no"?><svg xmlns="http://www.w3.org/2000/svg" xmlns:xlink="http://www.w3.org/1999/xlink" contentStyleType="text/css" height="1332px" preserveAspectRatio="none" style="width:1440px;height:1332px;background:#FFFFFF;" version="1.1" viewBox="0 0 1440 1332" width="1440px" zoomAndPan="magnify"><defs/><g><!--MD5=[701ca1a946997c70f44444ac97b72a7f]
class ServicesContract--><g id="elem_ServicesContract"><rect codeLine="1" fill="#F1F1F1" height="48" id="ServicesContract" rx="2.5" ry="2.5" style="stroke:#181818;stroke-width:0.5;" width="140" x="7" y="926"/><ellipse cx="22" cy="942" fill="#ADD1B2" rx="11" ry="11" style="stroke:#181818;stroke-width:1.0;"/><path d="M24.7656,937.875 Q24.9219,937.6563 25.1094,937.5469 Q25.2969,937.4375 25.5156,937.4375 Q25.8906,937.4375 26.125,937.6953 Q26.3594,937.9531 26.3594,938.5625 L26.3594,940.0156 Q26.3594,940.625 26.125,940.8906 Q25.8906,941.1563 25.5156,941.1563 Q25.1719,941.1563 24.9688,940.9531 Q24.7656,940.7656 24.6563,940.25 Q24.6094,939.8906 24.4219,939.7031 Q24.0938,939.3281 23.4844,939.1094 Q22.875,938.8906 22.25,938.8906 Q21.4844,938.8906 20.8516,939.2188 Q20.2188,939.5469 19.7266,940.2969 Q19.2344,941.0469 19.2344,942.0781 L19.2344,943.1719 Q19.2344,944.4063 20.125,945.2266 Q21.0156,946.0469 22.6094,946.0469 Q23.5469,946.0469 24.2031,945.7969 Q24.5938,945.6406 25.0156,945.2031 Q25.2813,944.9375 25.4297,944.8594 Q25.5781,944.7813 25.7813,944.7813 Q26.1094,944.7813 26.3672,945.0391 Q26.625,945.2969 26.625,945.6406 Q26.625,945.9844 26.2813,946.3906 Q25.7813,946.9688 24.9844,947.2969 Q23.9063,947.75 22.6094,947.75 Q21.0938,947.75 19.8906,947.125 Q18.9063,946.625 18.2188,945.5547 Q17.5313,944.4844 17.5313,943.2031 L17.5313,942.0469 Q17.5313,940.7188 18.1484,939.5703 Q18.7656,938.4219 19.8594,937.8047 Q20.9531,937.1875 22.1875,937.1875 Q22.9219,937.1875 23.5703,937.3516 Q24.2188,937.5156 24.7656,937.875 Z " fill="#000000"/><text fill="#000000" font-family="sans-serif" font-size="14" lengthAdjust="spacing" textLength="108" x="36" y="947.7285">ServicesContract</text><line style="stroke:#181818;stroke-width:0.5;" x1="8" x2="146" y1="958" y2="958"/><line style="stroke:#181818;stroke-width:0.5;" x1="8" x2="146" y1="966" y2="966"/></g><!--MD5=[f0268dd29ee89052933f031546cb1cab]
class Menu--><g id="elem_Menu"><rect codeLine="32" fill="#F1F1F1" height="224.0938" id="Menu" rx="2.5" ry="2.5" style="stroke:#181818;stroke-width:0.5;" width="186" x="946" y="7"/><ellipse cx="1017.25" cy="23" fill="#ADD1B2" rx="11" ry="11" style="stroke:#181818;stroke-width:1.0;"/><path d="M1020.0156,18.875 Q1020.1719,18.6563 1020.3594,18.5469 Q1020.5469,18.4375 1020.7656,18.4375 Q1021.1406,18.4375 1021.375,18.6953 Q1021.6094,18.9531 1021.6094,19.5625 L1021.6094,21.0156 Q1021.6094,21.625 1021.375,21.8906 Q1021.1406,22.1563 1020.7656,22.1563 Q1020.4219,22.1563 1020.2188,21.9531 Q1020.0156,21.7656 1019.9063,21.25 Q1019.8594,20.8906 1019.6719,20.7031 Q1019.3438,20.3281 1018.7344,20.1094 Q1018.125,19.8906 1017.5,19.8906 Q1016.7344,19.8906 1016.1016,20.2188 Q1015.4688,20.5469 1014.9766,21.2969 Q1014.4844,22.0469 1014.4844,23.0781 L1014.4844,24.1719 Q1014.4844,25.4063 1015.375,26.2266 Q1016.2656,27.0469 1017.8594,27.0469 Q1018.7969,27.0469 1019.4531,26.7969 Q1019.8438,26.6406 1020.2656,26.2031 Q1020.5313,25.9375 1020.6797,25.8594 Q1020.8281,25.7813 1021.0313,25.7813 Q1021.3594,25.7813 1021.6172,26.0391 Q1021.875,26.2969 1021.875,26.6406 Q1021.875,26.9844 1021.5313,27.3906 Q1021.0313,27.9688 1020.2344,28.2969 Q1019.1563,28.75 1017.8594,28.75 Q1016.3438,28.75 1015.1406,28.125 Q1014.1563,27.625 1013.4688,26.5547 Q1012.7813,25.4844 1012.7813,24.2031 L1012.7813,23.0469 Q1012.7813,21.7188 1013.3984,20.5703 Q1014.0156,19.4219 1015.1094,18.8047 Q1016.2031,18.1875 1017.4375,18.1875 Q1018.1719,18.1875 1018.8203,18.3516 Q1019.4688,18.5156 1020.0156,18.875 Z " fill="#000000"/><text fill="#000000" font-family="sans-serif" font-size="14" lengthAdjust="spacing" textLength="35" x="1037.75" y="28.7285">Menu</text><line style="stroke:#181818;stroke-width:0.5;" x1="947" x2="1131" y1="39" y2="39"/><rect fill="none" height="6" style="stroke:#C82930;stroke-width:1.0;" width="6" x="954" y="50.3047"/><text fill="#000000" font-family="sans-serif" font-size="14" lengthAdjust="spacing" textLength="63" x="966" y="57.5332">String title</text><line style="stroke:#181818;stroke-width:0.5;" x1="947" x2="1131" y1="64.6094" y2="64.6094"/><ellipse cx="957" cy="78.9141" fill="#84BE84" rx="3" ry="3" style="stroke:#038048;stroke-width:1.0;"/><text fill="#000000" font-family="sans-serif" font-size="14" lengthAdjust="spacing" textLength="57" x="966" y="83.1426">interact()</text><polygon fill="#FFFF44" points="957,91.5234,961,95.5234,957,99.5234,953,95.5234" style="stroke:#B38D22;stroke-width:1.0;"/><text fill="#000000" font-family="sans-serif" font-size="14" font-style="italic" lengthAdjust="spacing" textLength="83" x="966" y="100.752">addOptions()</text><polygon fill="#FFFF44" points="957,109.1328,961,113.1328,957,117.1328,953,113.1328" style="stroke:#B38D22;stroke-width:1.0;"/><text fill="#000000" font-family="sans-serif" font-size="14" lengthAdjust="spacing" textLength="65" x="966" y="118.3613">interact_()</text><polygon fill="#FFFF44" points="957,126.7422,961,130.7422,957,134.7422,953,130.7422" style="stroke:#B38D22;stroke-width:1.0;"/><text fill="#000000" font-family="sans-serif" font-size="14" lengthAdjust="spacing" textLength="76" x="966" y="135.9707">showTitles()</text><rect fill="#F24D5C" height="6" style="stroke:#C82930;stroke-width:1.0;" width="6" x="954" y="146.3516"/><text fill="#000000" font-family="sans-serif" font-size="14" lengthAdjust="spacing" textLength="69" x="966" y="153.5801">showTitle()</text><polygon fill="#FFFF44" points="957,161.9609,961,165.9609,957,169.9609,953,165.9609" style="stroke:#B38D22;stroke-width:1.0;"/><text fill="#000000" font-family="sans-serif" font-size="14" lengthAdjust="spacing" textLength="138" x="966" y="171.1895">execChoosedOption()</text><polygon fill="#FFFF44" points="957,179.5703,961,183.5703,957,187.5703,953,183.5703" style="stroke:#B38D22;stroke-width:1.0;"/><text fill="#000000" font-family="sans-serif" font-size="14" lengthAdjust="spacing" textLength="119" x="966" y="188.7988">add(Option option)</text><polygon fill="#FFFF44" points="957,197.1797,961,201.1797,957,205.1797,953,201.1797" style="stroke:#B38D22;stroke-width:1.0;"/><text fill="#000000" font-family="sans-serif" font-size="14" lengthAdjust="spacing" textLength="106" x="966" y="206.4082">removeOptions()</text><polygon fill="#FFFF44" points="957,214.7891,961,218.7891,957,222.7891,953,218.7891" style="stroke:#B38D22;stroke-width:1.0;"/><text fill="#000000" font-family="sans-serif" font-size="14" lengthAdjust="spacing" textLength="160" x="966" y="224.0176">hasOption(Option option)</text></g><!--MD5=[ed2fc5c4a771128b6c6b2874ec3d6d45]
class DynamicMenu--><g id="elem_DynamicMenu"><rect codeLine="55" fill="#F1F1F1" height="65.6094" id="DynamicMenu" rx="2.5" ry="2.5" style="stroke:#181818;stroke-width:0.5;" width="122" x="602" y="639"/><ellipse cx="617" cy="655" fill="#A9DCDF" rx="11" ry="11" style="stroke:#181818;stroke-width:1.0;"/><path d="M619.1875,656.7656 L615.0469,656.7656 L614.625,657.7969 L615.0469,657.7969 Q615.6563,657.7969 615.9219,658.0313 Q616.1875,658.2656 616.1875,658.6563 Q616.1875,659.0313 615.9219,659.2656 Q615.6563,659.5 615.0469,659.5 L612.75,659.5 Q612.1406,659.5 611.8828,659.2656 Q611.625,659.0313 611.625,658.6406 Q611.625,658.2656 611.8984,658.0234 Q612.1719,657.7813 612.7969,657.7969 L615.4688,651.1406 L614.3594,651.1406 Q613.75,651.1406 613.4844,650.9063 Q613.2188,650.6719 613.2188,650.2813 Q613.2188,649.9063 613.4844,649.6719 Q613.75,649.4375 614.3594,649.4375 L618.0313,649.4375 L621.4219,657.7969 Q622.0156,657.7969 622.2031,657.9375 Q622.5938,658.2031 622.5938,658.6563 Q622.5938,659.0313 622.3359,659.2656 Q622.0781,659.5 621.4688,659.5 L619.1719,659.5 Q618.5625,659.5 618.2969,659.2656 Q618.0313,659.0313 618.0313,658.6406 Q618.0313,658.2656 618.2969,658.0313 Q618.5625,657.7969 619.1719,657.7969 L619.5938,657.7969 L619.1875,656.7656 Z M618.4688,655.0625 L617.1094,651.6875 L615.7344,655.0625 L618.4688,655.0625 Z " fill="#000000"/><text fill="#000000" font-family="sans-serif" font-size="14" font-style="italic" lengthAdjust="spacing" textLength="90" x="631" y="660.7285">DynamicMenu</text><line style="stroke:#181818;stroke-width:0.5;" x1="603" x2="723" y1="671" y2="671"/><line style="stroke:#181818;stroke-width:0.5;" x1="603" x2="723" y1="679" y2="679"/><ellipse cx="613" cy="693.3047" fill="#84BE84" rx="3" ry="3" style="stroke:#038048;stroke-width:1.0;"/><text fill="#000000" font-family="sans-serif" font-size="14" lengthAdjust="spacing" textLength="57" x="622" y="697.5332">interact()</text></g><!--MD5=[1e1ab81ceca60840e21d95fa93f43ed6]
class IterativeMenu--><g id="elem_IterativeMenu"><rect codeLine="51" fill="#F1F1F1" height="65.6094" id="IterativeMenu" rx="2.5" ry="2.5" style="stroke:#181818;stroke-width:0.5;" width="118" x="639" y="469.5"/><ellipse cx="654" cy="485.5" fill="#A9DCDF" rx="11" ry="11" style="stroke:#181818;stroke-width:1.0;"/><path d="M656.1875,487.2656 L652.0469,487.2656 L651.625,488.2969 L652.0469,488.2969 Q652.6563,488.2969 652.9219,488.5313 Q653.1875,488.7656 653.1875,489.1563 Q653.1875,489.5313 652.9219,489.7656 Q652.6563,490 652.0469,490 L649.75,490 Q649.1406,490 648.8828,489.7656 Q648.625,489.5313 648.625,489.1406 Q648.625,488.7656 648.8984,488.5234 Q649.1719,488.2813 649.7969,488.2969 L652.4688,481.6406 L651.3594,481.6406 Q650.75,481.6406 650.4844,481.4063 Q650.2188,481.1719 650.2188,480.7813 Q650.2188,480.4063 650.4844,480.1719 Q650.75,479.9375 651.3594,479.9375 L655.0313,479.9375 L658.4219,488.2969 Q659.0156,488.2969 659.2031,488.4375 Q659.5938,488.7031 659.5938,489.1563 Q659.5938,489.5313 659.3359,489.7656 Q659.0781,490 658.4688,490 L656.1719,490 Q655.5625,490 655.2969,489.7656 Q655.0313,489.5313 655.0313,489.1406 Q655.0313,488.7656 655.2969,488.5313 Q655.5625,488.2969 656.1719,488.2969 L656.5938,488.2969 L656.1875,487.2656 Z M655.4688,485.5625 L654.1094,482.1875 L652.7344,485.5625 L655.4688,485.5625 Z " fill="#000000"/><text fill="#000000" font-family="sans-serif" font-size="14" font-style="italic" lengthAdjust="spacing" textLength="86" x="668" y="491.2285">IterativeMenu</text><line style="stroke:#181818;stroke-width:0.5;" x1="640" x2="756" y1="501.5" y2="501.5"/><line style="stroke:#181818;stroke-width:0.5;" x1="640" x2="756" y1="509.5" y2="509.5"/><ellipse cx="650" cy="523.8047" fill="#84BE84" rx="3" ry="3" style="stroke:#038048;stroke-width:1.0;"/><text fill="#000000" font-family="sans-serif" font-size="14" lengthAdjust="spacing" textLength="57" x="659" y="528.0332">interact()</text></g><!--MD5=[9005bdc078c0a5e9ebdd6416d8bc3fc4]
class QuitMenu--><g id="elem_QuitMenu"><rect codeLine="45" fill="#F1F1F1" height="100.8281" id="QuitMenu" rx="2.5" ry="2.5" style="stroke:#181818;stroke-width:0.5;" width="224" x="762" y="291"/><ellipse cx="838.75" cy="307" fill="#A9DCDF" rx="11" ry="11" style="stroke:#181818;stroke-width:1.0;"/><path d="M840.9375,308.7656 L836.7969,308.7656 L836.375,309.7969 L836.7969,309.7969 Q837.4063,309.7969 837.6719,310.0313 Q837.9375,310.2656 837.9375,310.6563 Q837.9375,311.0313 837.6719,311.2656 Q837.4063,311.5 836.7969,311.5 L834.5,311.5 Q833.8906,311.5 833.6328,311.2656 Q833.375,311.0313 833.375,310.6406 Q833.375,310.2656 833.6484,310.0234 Q833.9219,309.7813 834.5469,309.7969 L837.2188,303.1406 L836.1094,303.1406 Q835.5,303.1406 835.2344,302.9063 Q834.9688,302.6719 834.9688,302.2813 Q834.9688,301.9063 835.2344,301.6719 Q835.5,301.4375 836.1094,301.4375 L839.7813,301.4375 L843.1719,309.7969 Q843.7656,309.7969 843.9531,309.9375 Q844.3438,310.2031 844.3438,310.6563 Q844.3438,311.0313 844.0859,311.2656 Q843.8281,311.5 843.2188,311.5 L840.9219,311.5 Q840.3125,311.5 840.0469,311.2656 Q839.7813,311.0313 839.7813,310.6406 Q839.7813,310.2656 840.0469,310.0313 Q840.3125,309.7969 840.9219,309.7969 L841.3438,309.7969 L840.9375,308.7656 Z M840.2188,307.0625 L838.8594,303.6875 L837.4844,307.0625 L840.2188,307.0625 Z " fill="#000000"/><text fill="#000000" font-family="sans-serif" font-size="14" font-style="italic" lengthAdjust="spacing" textLength="62" x="859.25" y="312.7285">QuitMenu</text><line style="stroke:#181818;stroke-width:0.5;" x1="763" x2="985" y1="323" y2="323"/><line style="stroke:#181818;stroke-width:0.5;" x1="763" x2="985" y1="331" y2="331"/><polygon fill="#FFFF44" points="773,340.3047,777,344.3047,773,348.3047,769,344.3047" style="stroke:#B38D22;stroke-width:1.0;"/><text fill="#000000" font-family="sans-serif" font-size="14" lengthAdjust="spacing" textLength="76" x="782" y="349.5332">showTitles()</text><polygon fill="#FFFF44" points="773,357.9141,777,361.9141,773,365.9141,769,361.9141" style="stroke:#B38D22;stroke-width:1.0;"/><text fill="#000000" font-family="sans-serif" font-size="14" lengthAdjust="spacing" textLength="99" x="782" y="367.1426">addquitOption()</text><polygon fill="#FFFF44" points="773,375.5234,777,379.5234,773,383.5234,769,379.5234" style="stroke:#B38D22;stroke-width:1.0;"/><text fill="#000000" font-family="sans-serif" font-size="14" lengthAdjust="spacing" textLength="198" x="782" y="384.752">boolean isExecutedquitOption()</text></g><!--MD5=[51db7c20ab219182e6e851dde63df4ce]
class ServicesContractMenu--><g id="elem_ServicesContractMenu"><rect codeLine="6" fill="#F1F1F1" height="48" id="ServicesContractMenu" rx="2.5" ry="2.5" style="stroke:#181818;stroke-width:0.5;" width="175" x="273.5" y="800"/><ellipse cx="288.5" cy="816" fill="#ADD1B2" rx="11" ry="11" style="stroke:#181818;stroke-width:1.0;"/><path d="M291.2656,811.875 Q291.4219,811.6563 291.6094,811.5469 Q291.7969,811.4375 292.0156,811.4375 Q292.3906,811.4375 292.625,811.6953 Q292.8594,811.9531 292.8594,812.5625 L292.8594,814.0156 Q292.8594,814.625 292.625,814.8906 Q292.3906,815.1563 292.0156,815.1563 Q291.6719,815.1563 291.4688,814.9531 Q291.2656,814.7656 291.1563,814.25 Q291.1094,813.8906 290.9219,813.7031 Q290.5938,813.3281 289.9844,813.1094 Q289.375,812.8906 288.75,812.8906 Q287.9844,812.8906 287.3516,813.2188 Q286.7188,813.5469 286.2266,814.2969 Q285.7344,815.0469 285.7344,816.0781 L285.7344,817.1719 Q285.7344,818.4063 286.625,819.2266 Q287.5156,820.0469 289.1094,820.0469 Q290.0469,820.0469 290.7031,819.7969 Q291.0938,819.6406 291.5156,819.2031 Q291.7813,818.9375 291.9297,818.8594 Q292.0781,818.7813 292.2813,818.7813 Q292.6094,818.7813 292.8672,819.0391 Q293.125,819.2969 293.125,819.6406 Q293.125,819.9844 292.7813,820.3906 Q292.2813,820.9688 291.4844,821.2969 Q290.4063,821.75 289.1094,821.75 Q287.5938,821.75 286.3906,821.125 Q285.4063,820.625 284.7188,819.5547 Q284.0313,818.4844 284.0313,817.2031 L284.0313,816.0469 Q284.0313,814.7188 284.6484,813.5703 Q285.2656,812.4219 286.3594,811.8047 Q287.4531,811.1875 288.6875,811.1875 Q289.4219,811.1875 290.0703,811.3516 Q290.7188,811.5156 291.2656,811.875 Z " fill="#000000"/><text fill="#000000" font-family="sans-serif" font-size="14" lengthAdjust="spacing" textLength="143" x="302.5" y="821.7285">ServicesContractMenu</text><line style="stroke:#181818;stroke-width:0.5;" x1="274.5" x2="447.5" y1="832" y2="832"/><line style="stroke:#181818;stroke-width:0.5;" x1="274.5" x2="447.5" y1="840" y2="840"/></g><!--MD5=[b07065dfc0d0e09965ec10bfc328bb3e]
class Option--><g id="elem_Option"><rect codeLine="59" fill="#F1F1F1" height="118.4375" id="Option" rx="2.5" ry="2.5" style="stroke:#181818;stroke-width:0.5;" width="147" x="954.5" y="613"/><ellipse cx="1002.75" cy="629" fill="#A9DCDF" rx="11" ry="11" style="stroke:#181818;stroke-width:1.0;"/><path d="M1004.9375,630.7656 L1000.7969,630.7656 L1000.375,631.7969 L1000.7969,631.7969 Q1001.4063,631.7969 1001.6719,632.0313 Q1001.9375,632.2656 1001.9375,632.6563 Q1001.9375,633.0313 1001.6719,633.2656 Q1001.4063,633.5 1000.7969,633.5 L998.5,633.5 Q997.8906,633.5 997.6328,633.2656 Q997.375,633.0313 997.375,632.6406 Q997.375,632.2656 997.6484,632.0234 Q997.9219,631.7813 998.5469,631.7969 L1001.2188,625.1406 L1000.1094,625.1406 Q999.5,625.1406 999.2344,624.9063 Q998.9688,624.6719 998.9688,624.2813 Q998.9688,623.9063 999.2344,623.6719 Q999.5,623.4375 1000.1094,623.4375 L1003.7813,623.4375 L1007.1719,631.7969 Q1007.7656,631.7969 1007.9531,631.9375 Q1008.3438,632.2031 1008.3438,632.6563 Q1008.3438,633.0313 1008.0859,633.2656 Q1007.8281,633.5 1007.2188,633.5 L1004.9219,633.5 Q1004.3125,633.5 1004.0469,633.2656 Q1003.7813,633.0313 1003.7813,632.6406 Q1003.7813,632.2656 1004.0469,632.0313 Q1004.3125,631.7969 1004.9219,631.7969 L1005.3438,631.7969 L1004.9375,630.7656 Z M1004.2188,629.0625 L1002.8594,625.6875 L1001.4844,629.0625 L1004.2188,629.0625 Z " fill="#000000"/><text fill="#000000" font-family="sans-serif" font-size="14" font-style="italic" lengthAdjust="spacing" textLength="42" x="1023.25" y="634.7285">Option</text><line style="stroke:#181818;stroke-width:0.5;" x1="955.5" x2="1100.5" y1="645" y2="645"/><ellipse cx="965.5" cy="659.3047" fill="none" rx="3" ry="3" style="stroke:#038048;stroke-width:1.0;"/><text fill="#000000" font-family="sans-serif" font-size="14" lengthAdjust="spacing" textLength="22" x="974.5" y="663.5332">title</text><line style="stroke:#181818;stroke-width:0.5;" x1="955.5" x2="1100.5" y1="670.6094" y2="670.6094"/><ellipse cx="965.5" cy="684.9141" fill="#84BE84" rx="3" ry="3" style="stroke:#038048;stroke-width:1.0;"/><text fill="#000000" font-family="sans-serif" font-size="14" lengthAdjust="spacing" textLength="112" x="974.5" y="689.1426">abstract interact()</text><ellipse cx="965.5" cy="702.5234" fill="#84BE84" rx="3" ry="3" style="stroke:#038048;stroke-width:1.0;"/><text fill="#000000" font-family="sans-serif" font-size="14" lengthAdjust="spacing" textLength="121" x="974.5" y="706.752">showTitle(int index)</text><polygon fill="#FFFF44" points="965.5,715.1328,969.5,719.1328,965.5,723.1328,961.5,719.1328" style="stroke:#B38D22;stroke-width:1.0;"/><text fill="#000000" font-family="sans-serif" font-size="14" lengthAdjust="spacing" textLength="98" x="974.5" y="724.3613">String getTitle()</text></g><!--MD5=[73f52c262fed881e4d6c63be947d9a43]
class ServicesContractOption--><g id="elem_ServicesContractOption"><rect codeLine="72" fill="#F1F1F1" height="65.6094" id="ServicesContractOption" rx="2.5" ry="2.5" style="stroke:#181818;stroke-width:0.5;" width="244" x="768" y="791"/><ellipse cx="811.35" cy="807" fill="#A9DCDF" rx="11" ry="11" style="stroke:#181818;stroke-width:1.0;"/><path d="M813.5375,808.7656 L809.3969,808.7656 L808.975,809.7969 L809.3969,809.7969 Q810.0063,809.7969 810.2719,810.0313 Q810.5375,810.2656 810.5375,810.6563 Q810.5375,811.0313 810.2719,811.2656 Q810.0063,811.5 809.3969,811.5 L807.1,811.5 Q806.4906,811.5 806.2328,811.2656 Q805.975,811.0313 805.975,810.6406 Q805.975,810.2656 806.2484,810.0234 Q806.5219,809.7813 807.1469,809.7969 L809.8188,803.1406 L808.7094,803.1406 Q808.1,803.1406 807.8344,802.9063 Q807.5688,802.6719 807.5688,802.2813 Q807.5688,801.9063 807.8344,801.6719 Q808.1,801.4375 808.7094,801.4375 L812.3813,801.4375 L815.7719,809.7969 Q816.3656,809.7969 816.5531,809.9375 Q816.9438,810.2031 816.9438,810.6563 Q816.9438,811.0313 816.6859,811.2656 Q816.4281,811.5 815.8188,811.5 L813.5219,811.5 Q812.9125,811.5 812.6469,811.2656 Q812.3813,811.0313 812.3813,810.6406 Q812.3813,810.2656 812.6469,810.0313 Q812.9125,809.7969 813.5219,809.7969 L813.9438,809.7969 L813.5375,808.7656 Z M812.8188,807.0625 L811.4594,803.6875 L810.0844,807.0625 L812.8188,807.0625 Z " fill="#000000"/><text fill="#000000" font-family="sans-serif" font-size="14" font-style="italic" lengthAdjust="spacing" textLength="149" x="831.65" y="812.7285">ServicesContractOption</text><line style="stroke:#181818;stroke-width:0.5;" x1="769" x2="1011" y1="823" y2="823"/><polygon fill="none" points="779,832.3047,783,836.3047,779,840.3047,775,836.3047" style="stroke:#B38D22;stroke-width:1.0;"/><text fill="#000000" font-family="sans-serif" font-size="14" lengthAdjust="spacing" textLength="218" x="788" y="841.5332">ServicesContract servicesContract</text><line style="stroke:#181818;stroke-width:0.5;" x1="769" x2="1011" y1="848.6094" y2="848.6094"/></g><!--MD5=[ffe3c6f41a9673c08ef07fee83b4ceba]
class CancelServicesContractOption--><g id="elem_CancelServicesContractOption"><rect codeLine="76" fill="#F1F1F1" height="65.6094" id="CancelServicesContractOption" rx="2.5" ry="2.5" style="stroke:#181818;stroke-width:0.5;" width="226" x="694" y="917"/><ellipse cx="709" cy="933" fill="#ADD1B2" rx="11" ry="11" style="stroke:#181818;stroke-width:1.0;"/><path d="M711.7656,928.875 Q711.9219,928.6563 712.1094,928.5469 Q712.2969,928.4375 712.5156,928.4375 Q712.8906,928.4375 713.125,928.6953 Q713.3594,928.9531 713.3594,929.5625 L713.3594,931.0156 Q713.3594,931.625 713.125,931.8906 Q712.8906,932.1563 712.5156,932.1563 Q712.1719,932.1563 711.9688,931.9531 Q711.7656,931.7656 711.6563,931.25 Q711.6094,930.8906 711.4219,930.7031 Q711.0938,930.3281 710.4844,930.1094 Q709.875,929.8906 709.25,929.8906 Q708.4844,929.8906 707.8516,930.2188 Q707.2188,930.5469 706.7266,931.2969 Q706.2344,932.0469 706.2344,933.0781 L706.2344,934.1719 Q706.2344,935.4063 707.125,936.2266 Q708.0156,937.0469 709.6094,937.0469 Q710.5469,937.0469 711.2031,936.7969 Q711.5938,936.6406 712.0156,936.2031 Q712.2813,935.9375 712.4297,935.8594 Q712.5781,935.7813 712.7813,935.7813 Q713.1094,935.7813 713.3672,936.0391 Q713.625,936.2969 713.625,936.6406 Q713.625,936.9844 713.2813,937.3906 Q712.7813,937.9688 711.9844,938.2969 Q710.9063,938.75 709.6094,938.75 Q708.0938,938.75 706.8906,938.125 Q705.9063,937.625 705.2188,936.5547 Q704.5313,935.4844 704.5313,934.2031 L704.5313,933.0469 Q704.5313,931.7188 705.1484,930.5703 Q705.7656,929.4219 706.8594,928.8047 Q707.9531,928.1875 709.1875,928.1875 Q709.9219,928.1875 710.5703,928.3516 Q711.2188,928.5156 711.7656,928.875 Z " fill="#000000"/><text fill="#000000" font-family="sans-serif" font-size="14" lengthAdjust="spacing" textLength="194" x="723" y="938.7285">CancelServicesContractOption</text><line style="stroke:#181818;stroke-width:0.5;" x1="695" x2="919" y1="949" y2="949"/><line style="stroke:#181818;stroke-width:0.5;" x1="695" x2="919" y1="957" y2="957"/><ellipse cx="705" cy="971.3047" fill="#84BE84" rx="3" ry="3" style="stroke:#038048;stroke-width:1.0;"/><text fill="#000000" font-family="sans-serif" font-size="14" lengthAdjust="spacing" textLength="57" x="714" y="975.5332">interact()</text></g><!--MD5=[012940348aa8c51abc7a9f57cf76ba49]
class CostServicesContractOption--><g id="elem_CostServicesContractOption"><rect codeLine="81" fill="#F1F1F1" height="65.6094" id="CostServicesContractOption" rx="2.5" ry="2.5" style="stroke:#181818;stroke-width:0.5;" width="211" x="928.5" y="1043"/><ellipse cx="943.5" cy="1059" fill="#ADD1B2" rx="11" ry="11" style="stroke:#181818;stroke-width:1.0;"/><path d="M946.2656,1054.875 Q946.4219,1054.6563 946.6094,1054.5469 Q946.7969,1054.4375 947.0156,1054.4375 Q947.3906,1054.4375 947.625,1054.6953 Q947.8594,1054.9531 947.8594,1055.5625 L947.8594,1057.0156 Q947.8594,1057.625 947.625,1057.8906 Q947.3906,1058.1563 947.0156,1058.1563 Q946.6719,1058.1563 946.4688,1057.9531 Q946.2656,1057.7656 946.1563,1057.25 Q946.1094,1056.8906 945.9219,1056.7031 Q945.5938,1056.3281 944.9844,1056.1094 Q944.375,1055.8906 943.75,1055.8906 Q942.9844,1055.8906 942.3516,1056.2188 Q941.7188,1056.5469 941.2266,1057.2969 Q940.7344,1058.0469 940.7344,1059.0781 L940.7344,1060.1719 Q940.7344,1061.4063 941.625,1062.2266 Q942.5156,1063.0469 944.1094,1063.0469 Q945.0469,1063.0469 945.7031,1062.7969 Q946.0938,1062.6406 946.5156,1062.2031 Q946.7813,1061.9375 946.9297,1061.8594 Q947.0781,1061.7813 947.2813,1061.7813 Q947.6094,1061.7813 947.8672,1062.0391 Q948.125,1062.2969 948.125,1062.6406 Q948.125,1062.9844 947.7813,1063.3906 Q947.2813,1063.9688 946.4844,1064.2969 Q945.4063,1064.75 944.1094,1064.75 Q942.5938,1064.75 941.3906,1064.125 Q940.4063,1063.625 939.7188,1062.5547 Q939.0313,1061.4844 939.0313,1060.2031 L939.0313,1059.0469 Q939.0313,1057.7188 939.6484,1056.5703 Q940.2656,1055.4219 941.3594,1054.8047 Q942.4531,1054.1875 943.6875,1054.1875 Q944.4219,1054.1875 945.0703,1054.3516 Q945.7188,1054.5156 946.2656,1054.875 Z " fill="#000000"/><text fill="#000000" font-family="sans-serif" font-size="14" lengthAdjust="spacing" textLength="179" x="957.5" y="1064.7285">CostServicesContractOption</text><line style="stroke:#181818;stroke-width:0.5;" x1="929.5" x2="1138.5" y1="1075" y2="1075"/><line style="stroke:#181818;stroke-width:0.5;" x1="929.5" x2="1138.5" y1="1083" y2="1083"/><ellipse cx="939.5" cy="1097.3047" fill="#84BE84" rx="3" ry="3" style="stroke:#038048;stroke-width:1.0;"/><text fill="#000000" font-family="sans-serif" font-size="14" lengthAdjust="spacing" textLength="57" x="948.5" y="1101.5332">interact()</text></g><!--MD5=[aa132e488f1c2275a019353053fd1aa3]
class EnlargeServicesContractOption--><g id="elem_EnlargeServicesContractOption"><rect codeLine="86" fill="#F1F1F1" height="65.6094" id="EnlargeServicesContractOption" rx="2.5" ry="2.5" style="stroke:#181818;stroke-width:0.5;" width="231" x="182.5" y="917"/><ellipse cx="197.5" cy="933" fill="#ADD1B2" rx="11" ry="11" style="stroke:#181818;stroke-width:1.0;"/><path d="M200.2656,928.875 Q200.4219,928.6563 200.6094,928.5469 Q200.7969,928.4375 201.0156,928.4375 Q201.3906,928.4375 201.625,928.6953 Q201.8594,928.9531 201.8594,929.5625 L201.8594,931.0156 Q201.8594,931.625 201.625,931.8906 Q201.3906,932.1563 201.0156,932.1563 Q200.6719,932.1563 200.4688,931.9531 Q200.2656,931.7656 200.1563,931.25 Q200.1094,930.8906 199.9219,930.7031 Q199.5938,930.3281 198.9844,930.1094 Q198.375,929.8906 197.75,929.8906 Q196.9844,929.8906 196.3516,930.2188 Q195.7188,930.5469 195.2266,931.2969 Q194.7344,932.0469 194.7344,933.0781 L194.7344,934.1719 Q194.7344,935.4063 195.625,936.2266 Q196.5156,937.0469 198.1094,937.0469 Q199.0469,937.0469 199.7031,936.7969 Q200.0938,936.6406 200.5156,936.2031 Q200.7813,935.9375 200.9297,935.8594 Q201.0781,935.7813 201.2813,935.7813 Q201.6094,935.7813 201.8672,936.0391 Q202.125,936.2969 202.125,936.6406 Q202.125,936.9844 201.7813,937.3906 Q201.2813,937.9688 200.4844,938.2969 Q199.4063,938.75 198.1094,938.75 Q196.5938,938.75 195.3906,938.125 Q194.4063,937.625 193.7188,936.5547 Q193.0313,935.4844 193.0313,934.2031 L193.0313,933.0469 Q193.0313,931.7188 193.6484,930.5703 Q194.2656,929.4219 195.3594,928.8047 Q196.4531,928.1875 197.6875,928.1875 Q198.4219,928.1875 199.0703,928.3516 Q199.7188,928.5156 200.2656,928.875 Z " fill="#000000"/><text fill="#000000" font-family="sans-serif" font-size="14" lengthAdjust="spacing" textLength="199" x="211.5" y="938.7285">EnlargeServicesContractOption</text><line style="stroke:#181818;stroke-width:0.5;" x1="183.5" x2="412.5" y1="949" y2="949"/><line style="stroke:#181818;stroke-width:0.5;" x1="183.5" x2="412.5" y1="957" y2="957"/><ellipse cx="193.5" cy="971.3047" fill="#84BE84" rx="3" ry="3" style="stroke:#038048;stroke-width:1.0;"/><text fill="#000000" font-family="sans-serif" font-size="14" lengthAdjust="spacing" textLength="57" x="202.5" y="975.5332">interact()</text></g><!--MD5=[4eb8a18a3fb2316b166c65e1ee9e87c5]
class ListServicesContractOption--><g id="elem_ListServicesContractOption"><rect codeLine="91" fill="#F1F1F1" height="65.6094" id="ListServicesContractOption" rx="2.5" ry="2.5" style="stroke:#181818;stroke-width:0.5;" width="204" x="686" y="1043"/><ellipse cx="701" cy="1059" fill="#ADD1B2" rx="11" ry="11" style="stroke:#181818;stroke-width:1.0;"/><path d="M703.7656,1054.875 Q703.9219,1054.6563 704.1094,1054.5469 Q704.2969,1054.4375 704.5156,1054.4375 Q704.8906,1054.4375 705.125,1054.6953 Q705.3594,1054.9531 705.3594,1055.5625 L705.3594,1057.0156 Q705.3594,1057.625 705.125,1057.8906 Q704.8906,1058.1563 704.5156,1058.1563 Q704.1719,1058.1563 703.9688,1057.9531 Q703.7656,1057.7656 703.6563,1057.25 Q703.6094,1056.8906 703.4219,1056.7031 Q703.0938,1056.3281 702.4844,1056.1094 Q701.875,1055.8906 701.25,1055.8906 Q700.4844,1055.8906 699.8516,1056.2188 Q699.2188,1056.5469 698.7266,1057.2969 Q698.2344,1058.0469 698.2344,1059.0781 L698.2344,1060.1719 Q698.2344,1061.4063 699.125,1062.2266 Q700.0156,1063.0469 701.6094,1063.0469 Q702.5469,1063.0469 703.2031,1062.7969 Q703.5938,1062.6406 704.0156,1062.2031 Q704.2813,1061.9375 704.4297,1061.8594 Q704.5781,1061.7813 704.7813,1061.7813 Q705.1094,1061.7813 705.3672,1062.0391 Q705.625,1062.2969 705.625,1062.6406 Q705.625,1062.9844 705.2813,1063.3906 Q704.7813,1063.9688 703.9844,1064.2969 Q702.9063,1064.75 701.6094,1064.75 Q700.0938,1064.75 698.8906,1064.125 Q697.9063,1063.625 697.2188,1062.5547 Q696.5313,1061.4844 696.5313,1060.2031 L696.5313,1059.0469 Q696.5313,1057.7188 697.1484,1056.5703 Q697.7656,1055.4219 698.8594,1054.8047 Q699.9531,1054.1875 701.1875,1054.1875 Q701.9219,1054.1875 702.5703,1054.3516 Q703.2188,1054.5156 703.7656,1054.875 Z " fill="#000000"/><text fill="#000000" font-family="sans-serif" font-size="14" lengthAdjust="spacing" textLength="172" x="715" y="1064.7285">ListServicesContractOption</text><line style="stroke:#181818;stroke-width:0.5;" x1="687" x2="889" y1="1075" y2="1075"/><line style="stroke:#181818;stroke-width:0.5;" x1="687" x2="889" y1="1083" y2="1083"/><ellipse cx="697" cy="1097.3047" fill="#84BE84" rx="3" ry="3" style="stroke:#038048;stroke-width:1.0;"/><text fill="#000000" font-family="sans-serif" font-size="14" lengthAdjust="spacing" textLength="57" x="706" y="1101.5332">interact()</text></g><!--MD5=[f9715a46e3f18ab3599c7a3a62896827]
class PrintServicesContractOption--><g id="elem_PrintServicesContractOption"><rect codeLine="95" fill="#F1F1F1" height="65.6094" id="PrintServicesContractOption" rx="2.5" ry="2.5" style="stroke:#181818;stroke-width:0.5;" width="211" x="1097.5" y="917"/><ellipse cx="1112.5" cy="933" fill="#ADD1B2" rx="11" ry="11" style="stroke:#181818;stroke-width:1.0;"/><path d="M1115.2656,928.875 Q1115.4219,928.6563 1115.6094,928.5469 Q1115.7969,928.4375 1116.0156,928.4375 Q1116.3906,928.4375 1116.625,928.6953 Q1116.8594,928.9531 1116.8594,929.5625 L1116.8594,931.0156 Q1116.8594,931.625 1116.625,931.8906 Q1116.3906,932.1563 1116.0156,932.1563 Q1115.6719,932.1563 1115.4688,931.9531 Q1115.2656,931.7656 1115.1563,931.25 Q1115.1094,930.8906 1114.9219,930.7031 Q1114.5938,930.3281 1113.9844,930.1094 Q1113.375,929.8906 1112.75,929.8906 Q1111.9844,929.8906 1111.3516,930.2188 Q1110.7188,930.5469 1110.2266,931.2969 Q1109.7344,932.0469 1109.7344,933.0781 L1109.7344,934.1719 Q1109.7344,935.4063 1110.625,936.2266 Q1111.5156,937.0469 1113.1094,937.0469 Q1114.0469,937.0469 1114.7031,936.7969 Q1115.0938,936.6406 1115.5156,936.2031 Q1115.7813,935.9375 1115.9297,935.8594 Q1116.0781,935.7813 1116.2813,935.7813 Q1116.6094,935.7813 1116.8672,936.0391 Q1117.125,936.2969 1117.125,936.6406 Q1117.125,936.9844 1116.7813,937.3906 Q1116.2813,937.9688 1115.4844,938.2969 Q1114.4063,938.75 1113.1094,938.75 Q1111.5938,938.75 1110.3906,938.125 Q1109.4063,937.625 1108.7188,936.5547 Q1108.0313,935.4844 1108.0313,934.2031 L1108.0313,933.0469 Q1108.0313,931.7188 1108.6484,930.5703 Q1109.2656,929.4219 1110.3594,928.8047 Q1111.4531,928.1875 1112.6875,928.1875 Q1113.4219,928.1875 1114.0703,928.3516 Q1114.7188,928.5156 1115.2656,928.875 Z " fill="#000000"/><text fill="#000000" font-family="sans-serif" font-size="14" lengthAdjust="spacing" textLength="179" x="1126.5" y="938.7285">PrintServicesContractOption</text><line style="stroke:#181818;stroke-width:0.5;" x1="1098.5" x2="1307.5" y1="949" y2="949"/><line style="stroke:#181818;stroke-width:0.5;" x1="1098.5" x2="1307.5" y1="957" y2="957"/><ellipse cx="1108.5" cy="971.3047" fill="#84BE84" rx="3" ry="3" style="stroke:#038048;stroke-width:1.0;"/><text fill="#000000" font-family="sans-serif" font-size="14" lengthAdjust="spacing" textLength="57" x="1117.5" y="975.5332">interact()</text></g><!--MD5=[6b47e3cea4714c2ec513c2837af846f7]
class QuitOption--><g id="elem_QuitOption"><rect codeLine="66" fill="#F1F1F1" height="100.8281" id="QuitOption" rx="2.5" ry="2.5" style="stroke:#181818;stroke-width:0.5;" width="159" x="810.5" y="452"/><ellipse cx="852.05" cy="468" fill="#A9DCDF" rx="11" ry="11" style="stroke:#181818;stroke-width:1.0;"/><path d="M854.2375,469.7656 L850.0969,469.7656 L849.675,470.7969 L850.0969,470.7969 Q850.7063,470.7969 850.9719,471.0313 Q851.2375,471.2656 851.2375,471.6563 Q851.2375,472.0313 850.9719,472.2656 Q850.7063,472.5 850.0969,472.5 L847.8,472.5 Q847.1906,472.5 846.9328,472.2656 Q846.675,472.0313 846.675,471.6406 Q846.675,471.2656 846.9484,471.0234 Q847.2219,470.7813 847.8469,470.7969 L850.5188,464.1406 L849.4094,464.1406 Q848.8,464.1406 848.5344,463.9063 Q848.2688,463.6719 848.2688,463.2813 Q848.2688,462.9063 848.5344,462.6719 Q848.8,462.4375 849.4094,462.4375 L853.0813,462.4375 L856.4719,470.7969 Q857.0656,470.7969 857.2531,470.9375 Q857.6438,471.2031 857.6438,471.6563 Q857.6438,472.0313 857.3859,472.2656 Q857.1281,472.5 856.5188,472.5 L854.2219,472.5 Q853.6125,472.5 853.3469,472.2656 Q853.0813,472.0313 853.0813,471.6406 Q853.0813,471.2656 853.3469,471.0313 Q853.6125,470.7969 854.2219,470.7969 L854.6438,470.7969 L854.2375,469.7656 Z M853.5188,468.0625 L852.1594,464.6875 L850.7844,468.0625 L853.5188,468.0625 Z " fill="#000000"/><text fill="#000000" font-family="sans-serif" font-size="14" font-style="italic" lengthAdjust="spacing" textLength="68" x="871.95" y="473.7285">QuitOption</text><line style="stroke:#181818;stroke-width:0.5;" x1="811.5" x2="968.5" y1="484" y2="484"/><ellipse cx="821.5" cy="498.3047" fill="none" rx="3" ry="3" style="stroke:#038048;stroke-width:1.0;"/><text fill="#000000" font-family="sans-serif" font-size="14" lengthAdjust="spacing" textLength="112" x="830.5" y="502.5332">boolean executed</text><line style="stroke:#181818;stroke-width:0.5;" x1="811.5" x2="968.5" y1="509.6094" y2="509.6094"/><ellipse cx="821.5" cy="523.9141" fill="#84BE84" rx="3" ry="3" style="stroke:#038048;stroke-width:1.0;"/><text fill="#000000" font-family="sans-serif" font-size="14" lengthAdjust="spacing" textLength="57" x="830.5" y="528.1426">interact()</text><ellipse cx="821.5" cy="541.5234" fill="#84BE84" rx="3" ry="3" style="stroke:#038048;stroke-width:1.0;"/><text fill="#000000" font-family="sans-serif" font-size="14" lengthAdjust="spacing" textLength="133" x="830.5" y="545.752">boolean isExecuted()</text></g><!--MD5=[c480363f1059a5818dbe08dad55e70f5]
class ShiftServicesContractOption--><g id="elem_ShiftServicesContractOption"><rect codeLine="99" fill="#F1F1F1" height="65.6094" id="ShiftServicesContractOption" rx="2.5" ry="2.5" style="stroke:#181818;stroke-width:0.5;" width="210" x="449" y="917"/><ellipse cx="464" cy="933" fill="#ADD1B2" rx="11" ry="11" style="stroke:#181818;stroke-width:1.0;"/><path d="M466.7656,928.875 Q466.9219,928.6563 467.1094,928.5469 Q467.2969,928.4375 467.5156,928.4375 Q467.8906,928.4375 468.125,928.6953 Q468.3594,928.9531 468.3594,929.5625 L468.3594,931.0156 Q468.3594,931.625 468.125,931.8906 Q467.8906,932.1563 467.5156,932.1563 Q467.1719,932.1563 466.9688,931.9531 Q466.7656,931.7656 466.6563,931.25 Q466.6094,930.8906 466.4219,930.7031 Q466.0938,930.3281 465.4844,930.1094 Q464.875,929.8906 464.25,929.8906 Q463.4844,929.8906 462.8516,930.2188 Q462.2188,930.5469 461.7266,931.2969 Q461.2344,932.0469 461.2344,933.0781 L461.2344,934.1719 Q461.2344,935.4063 462.125,936.2266 Q463.0156,937.0469 464.6094,937.0469 Q465.5469,937.0469 466.2031,936.7969 Q466.5938,936.6406 467.0156,936.2031 Q467.2813,935.9375 467.4297,935.8594 Q467.5781,935.7813 467.7813,935.7813 Q468.1094,935.7813 468.3672,936.0391 Q468.625,936.2969 468.625,936.6406 Q468.625,936.9844 468.2813,937.3906 Q467.7813,937.9688 466.9844,938.2969 Q465.9063,938.75 464.6094,938.75 Q463.0938,938.75 461.8906,938.125 Q460.9063,937.625 460.2188,936.5547 Q459.5313,935.4844 459.5313,934.2031 L459.5313,933.0469 Q459.5313,931.7188 460.1484,930.5703 Q460.7656,929.4219 461.8594,928.8047 Q462.9531,928.1875 464.1875,928.1875 Q464.9219,928.1875 465.5703,928.3516 Q466.2188,928.5156 466.7656,928.875 Z " fill="#000000"/><text fill="#000000" font-family="sans-serif" font-size="14" lengthAdjust="spacing" textLength="178" x="478" y="938.7285">ShiftServicesContractOption</text><line style="stroke:#181818;stroke-width:0.5;" x1="450" x2="658" y1="949" y2="949"/><line style="stroke:#181818;stroke-width:0.5;" x1="450" x2="658" y1="957" y2="957"/><ellipse cx="460" cy="971.3047" fill="#84BE84" rx="3" ry="3" style="stroke:#038048;stroke-width:1.0;"/><text fill="#000000" font-family="sans-serif" font-size="14" lengthAdjust="spacing" textLength="57" x="469" y="975.5332">interact()</text></g><!--MD5=[7829b64950ce38e0487c4015ea331f97]
class Date--><g id="elem_Date"><rect codeLine="16" fill="#F1F1F1" height="48" id="Date" rx="2.5" ry="2.5" style="stroke:#181818;stroke-width:0.5;" width="62" x="364" y="1052"/><ellipse cx="379" cy="1068" fill="#ADD1B2" rx="11" ry="11" style="stroke:#181818;stroke-width:1.0;"/><path d="M381.7656,1063.875 Q381.9219,1063.6563 382.1094,1063.5469 Q382.2969,1063.4375 382.5156,1063.4375 Q382.8906,1063.4375 383.125,1063.6953 Q383.3594,1063.9531 383.3594,1064.5625 L383.3594,1066.0156 Q383.3594,1066.625 383.125,1066.8906 Q382.8906,1067.1563 382.5156,1067.1563 Q382.1719,1067.1563 381.9688,1066.9531 Q381.7656,1066.7656 381.6563,1066.25 Q381.6094,1065.8906 381.4219,1065.7031 Q381.0938,1065.3281 380.4844,1065.1094 Q379.875,1064.8906 379.25,1064.8906 Q378.4844,1064.8906 377.8516,1065.2188 Q377.2188,1065.5469 376.7266,1066.2969 Q376.2344,1067.0469 376.2344,1068.0781 L376.2344,1069.1719 Q376.2344,1070.4063 377.125,1071.2266 Q378.0156,1072.0469 379.6094,1072.0469 Q380.5469,1072.0469 381.2031,1071.7969 Q381.5938,1071.6406 382.0156,1071.2031 Q382.2813,1070.9375 382.4297,1070.8594 Q382.5781,1070.7813 382.7813,1070.7813 Q383.1094,1070.7813 383.3672,1071.0391 Q383.625,1071.2969 383.625,1071.6406 Q383.625,1071.9844 383.2813,1072.3906 Q382.7813,1072.9688 381.9844,1073.2969 Q380.9063,1073.75 379.6094,1073.75 Q378.0938,1073.75 376.8906,1073.125 Q375.9063,1072.625 375.2188,1071.5547 Q374.5313,1070.4844 374.5313,1069.2031 L374.5313,1068.0469 Q374.5313,1066.7188 375.1484,1065.5703 Q375.7656,1064.4219 376.8594,1063.8047 Q377.9531,1063.1875 379.1875,1063.1875 Q379.9219,1063.1875 380.5703,1063.3516 Q381.2188,1063.5156 381.7656,1063.875 Z " fill="#000000"/><text fill="#000000" font-family="sans-serif" font-size="14" lengthAdjust="spacing" textLength="30" x="393" y="1073.7285">Date</text><line style="stroke:#181818;stroke-width:0.5;" x1="365" x2="425" y1="1084" y2="1084"/><line style="stroke:#181818;stroke-width:0.5;" x1="365" x2="425" y1="1092" y2="1092"/></g><!--MD5=[1c40a9495d7098c3b845044b099123dc]
class Month--><g id="elem_Month"><rect codeLine="17" fill="#F1F1F1" height="48" id="Month" rx="2.5" ry="2.5" style="stroke:#181818;stroke-width:0.5;" width="71" x="253.5" y="1169"/><ellipse cx="268.5" cy="1185" fill="#ADD1B2" rx="11" ry="11" style="stroke:#181818;stroke-width:1.0;"/><path d="M271.2656,1180.875 Q271.4219,1180.6563 271.6094,1180.5469 Q271.7969,1180.4375 272.0156,1180.4375 Q272.3906,1180.4375 272.625,1180.6953 Q272.8594,1180.9531 272.8594,1181.5625 L272.8594,1183.0156 Q272.8594,1183.625 272.625,1183.8906 Q272.3906,1184.1563 272.0156,1184.1563 Q271.6719,1184.1563 271.4688,1183.9531 Q271.2656,1183.7656 271.1563,1183.25 Q271.1094,1182.8906 270.9219,1182.7031 Q270.5938,1182.3281 269.9844,1182.1094 Q269.375,1181.8906 268.75,1181.8906 Q267.9844,1181.8906 267.3516,1182.2188 Q266.7188,1182.5469 266.2266,1183.2969 Q265.7344,1184.0469 265.7344,1185.0781 L265.7344,1186.1719 Q265.7344,1187.4063 266.625,1188.2266 Q267.5156,1189.0469 269.1094,1189.0469 Q270.0469,1189.0469 270.7031,1188.7969 Q271.0938,1188.6406 271.5156,1188.2031 Q271.7813,1187.9375 271.9297,1187.8594 Q272.0781,1187.7813 272.2813,1187.7813 Q272.6094,1187.7813 272.8672,1188.0391 Q273.125,1188.2969 273.125,1188.6406 Q273.125,1188.9844 272.7813,1189.3906 Q272.2813,1189.9688 271.4844,1190.2969 Q270.4063,1190.75 269.1094,1190.75 Q267.5938,1190.75 266.3906,1190.125 Q265.4063,1189.625 264.7188,1188.5547 Q264.0313,1187.4844 264.0313,1186.2031 L264.0313,1185.0469 Q264.0313,1183.7188 264.6484,1182.5703 Q265.2656,1181.4219 266.3594,1180.8047 Q267.4531,1180.1875 268.6875,1180.1875 Q269.4219,1180.1875 270.0703,1180.3516 Q270.7188,1180.5156 271.2656,1180.875 Z " fill="#000000"/><text fill="#000000" font-family="sans-serif" font-size="14" lengthAdjust="spacing" textLength="39" x="282.5" y="1190.7285">Month</text><line style="stroke:#181818;stroke-width:0.5;" x1="254.5" x2="323.5" y1="1201" y2="1201"/><line style="stroke:#181818;stroke-width:0.5;" x1="254.5" x2="323.5" y1="1209" y2="1209"/></g><!--MD5=[f144808e0e29279a3117e64f7a82a4df]
class Format--><g id="elem_Format"><rect codeLine="18" fill="#F1F1F1" height="48" id="Format" rx="2.5" ry="2.5" style="stroke:#181818;stroke-width:0.5;" width="77" x="356.5" y="1277"/><ellipse cx="371.5" cy="1293" fill="#ADD1B2" rx="11" ry="11" style="stroke:#181818;stroke-width:1.0;"/><path d="M374.2656,1288.875 Q374.4219,1288.6563 374.6094,1288.5469 Q374.7969,1288.4375 375.0156,1288.4375 Q375.3906,1288.4375 375.625,1288.6953 Q375.8594,1288.9531 375.8594,1289.5625 L375.8594,1291.0156 Q375.8594,1291.625 375.625,1291.8906 Q375.3906,1292.1563 375.0156,1292.1563 Q374.6719,1292.1563 374.4688,1291.9531 Q374.2656,1291.7656 374.1563,1291.25 Q374.1094,1290.8906 373.9219,1290.7031 Q373.5938,1290.3281 372.9844,1290.1094 Q372.375,1289.8906 371.75,1289.8906 Q370.9844,1289.8906 370.3516,1290.2188 Q369.7188,1290.5469 369.2266,1291.2969 Q368.7344,1292.0469 368.7344,1293.0781 L368.7344,1294.1719 Q368.7344,1295.4063 369.625,1296.2266 Q370.5156,1297.0469 372.1094,1297.0469 Q373.0469,1297.0469 373.7031,1296.7969 Q374.0938,1296.6406 374.5156,1296.2031 Q374.7813,1295.9375 374.9297,1295.8594 Q375.0781,1295.7813 375.2813,1295.7813 Q375.6094,1295.7813 375.8672,1296.0391 Q376.125,1296.2969 376.125,1296.6406 Q376.125,1296.9844 375.7813,1297.3906 Q375.2813,1297.9688 374.4844,1298.2969 Q373.4063,1298.75 372.1094,1298.75 Q370.5938,1298.75 369.3906,1298.125 Q368.4063,1297.625 367.7188,1296.5547 Q367.0313,1295.4844 367.0313,1294.2031 L367.0313,1293.0469 Q367.0313,1291.7188 367.6484,1290.5703 Q368.2656,1289.4219 369.3594,1288.8047 Q370.4531,1288.1875 371.6875,1288.1875 Q372.4219,1288.1875 373.0703,1288.3516 Q373.7188,1288.5156 374.2656,1288.875 Z " fill="#000000"/><text fill="#000000" font-family="sans-serif" font-size="14" lengthAdjust="spacing" textLength="45" x="385.5" y="1298.7285">Format</text><line style="stroke:#181818;stroke-width:0.5;" x1="357.5" x2="432.5" y1="1309" y2="1309"/><line style="stroke:#181818;stroke-width:0.5;" x1="357.5" x2="432.5" y1="1317" y2="1317"/></g><!--MD5=[315b61b427ec618d6861d47eee00cca3]
class Console--><g id="elem_Console"><rect codeLine="19" fill="#F1F1F1" height="48" id="Console" rx="2.5" ry="2.5" style="stroke:#181818;stroke-width:0.5;" width="84" x="549" y="1169"/><ellipse cx="564" cy="1185" fill="#ADD1B2" rx="11" ry="11" style="stroke:#181818;stroke-width:1.0;"/><path d="M566.7656,1180.875 Q566.9219,1180.6563 567.1094,1180.5469 Q567.2969,1180.4375 567.5156,1180.4375 Q567.8906,1180.4375 568.125,1180.6953 Q568.3594,1180.9531 568.3594,1181.5625 L568.3594,1183.0156 Q568.3594,1183.625 568.125,1183.8906 Q567.8906,1184.1563 567.5156,1184.1563 Q567.1719,1184.1563 566.9688,1183.9531 Q566.7656,1183.7656 566.6563,1183.25 Q566.6094,1182.8906 566.4219,1182.7031 Q566.0938,1182.3281 565.4844,1182.1094 Q564.875,1181.8906 564.25,1181.8906 Q563.4844,1181.8906 562.8516,1182.2188 Q562.2188,1182.5469 561.7266,1183.2969 Q561.2344,1184.0469 561.2344,1185.0781 L561.2344,1186.1719 Q561.2344,1187.4063 562.125,1188.2266 Q563.0156,1189.0469 564.6094,1189.0469 Q565.5469,1189.0469 566.2031,1188.7969 Q566.5938,1188.6406 567.0156,1188.2031 Q567.2813,1187.9375 567.4297,1187.8594 Q567.5781,1187.7813 567.7813,1187.7813 Q568.1094,1187.7813 568.3672,1188.0391 Q568.625,1188.2969 568.625,1188.6406 Q568.625,1188.9844 568.2813,1189.3906 Q567.7813,1189.9688 566.9844,1190.2969 Q565.9063,1190.75 564.6094,1190.75 Q563.0938,1190.75 561.8906,1190.125 Q560.9063,1189.625 560.2188,1188.5547 Q559.5313,1187.4844 559.5313,1186.2031 L559.5313,1185.0469 Q559.5313,1183.7188 560.1484,1182.5703 Q560.7656,1181.4219 561.8594,1180.8047 Q562.9531,1180.1875 564.1875,1180.1875 Q564.9219,1180.1875 565.5703,1180.3516 Q566.2188,1180.5156 566.7656,1180.875 Z " fill="#000000"/><text fill="#000000" font-family="sans-serif" font-size="14" lengthAdjust="spacing" textLength="52" x="578" y="1190.7285">Console</text><line style="stroke:#181818;stroke-width:0.5;" x1="550" x2="632" y1="1201" y2="1201"/><line style="stroke:#181818;stroke-width:0.5;" x1="550" x2="632" y1="1209" y2="1209"/></g><!--MD5=[94b2979dc8db7061b05b681130e8ecb6]
class Interval--><g id="elem_Interval"><rect fill="#F1F1F1" height="48" id="Interval" rx="2.5" ry="2.5" style="stroke:#181818;stroke-width:0.5;" width="78" x="244" y="1052"/><ellipse cx="259" cy="1068" fill="#ADD1B2" rx="11" ry="11" style="stroke:#181818;stroke-width:1.0;"/><path d="M261.7656,1063.875 Q261.9219,1063.6563 262.1094,1063.5469 Q262.2969,1063.4375 262.5156,1063.4375 Q262.8906,1063.4375 263.125,1063.6953 Q263.3594,1063.9531 263.3594,1064.5625 L263.3594,1066.0156 Q263.3594,1066.625 263.125,1066.8906 Q262.8906,1067.1563 262.5156,1067.1563 Q262.1719,1067.1563 261.9688,1066.9531 Q261.7656,1066.7656 261.6563,1066.25 Q261.6094,1065.8906 261.4219,1065.7031 Q261.0938,1065.3281 260.4844,1065.1094 Q259.875,1064.8906 259.25,1064.8906 Q258.4844,1064.8906 257.8516,1065.2188 Q257.2188,1065.5469 256.7266,1066.2969 Q256.2344,1067.0469 256.2344,1068.0781 L256.2344,1069.1719 Q256.2344,1070.4063 257.125,1071.2266 Q258.0156,1072.0469 259.6094,1072.0469 Q260.5469,1072.0469 261.2031,1071.7969 Q261.5938,1071.6406 262.0156,1071.2031 Q262.2813,1070.9375 262.4297,1070.8594 Q262.5781,1070.7813 262.7813,1070.7813 Q263.1094,1070.7813 263.3672,1071.0391 Q263.625,1071.2969 263.625,1071.6406 Q263.625,1071.9844 263.2813,1072.3906 Q262.7813,1072.9688 261.9844,1073.2969 Q260.9063,1073.75 259.6094,1073.75 Q258.0938,1073.75 256.8906,1073.125 Q255.9063,1072.625 255.2188,1071.5547 Q254.5313,1070.4844 254.5313,1069.2031 L254.5313,1068.0469 Q254.5313,1066.7188 255.1484,1065.5703 Q255.7656,1064.4219 256.8594,1063.8047 Q257.9531,1063.1875 259.1875,1063.1875 Q259.9219,1063.1875 260.5703,1063.3516 Q261.2188,1063.5156 261.7656,1063.875 Z " fill="#000000"/><text fill="#000000" font-family="sans-serif" font-size="14" lengthAdjust="spacing" textLength="46" x="273" y="1073.7285">Interval</text><line style="stroke:#181818;stroke-width:0.5;" x1="245" x2="321" y1="1084" y2="1084"/><line style="stroke:#181818;stroke-width:0.5;" x1="245" x2="321" y1="1092" y2="1092"/></g><!--MD5=[832c43ad4608679533f7d2b6bfc262d7]
reverse link Option to ServicesContractOption--><g id="link_Option_ServicesContractOption"><path codeLine="21" d="M960.53,746.33 C946.11,762.01 931.6,777.79 919.52,790.92 " fill="none" id="Option-backto-ServicesContractOption" style="stroke:#181818;stroke-width:1.0;stroke-dasharray:7.0,7.0;"/><polygon fill="none" points="955.56,741.4,974.25,731.42,965.86,750.88,955.56,741.4" style="stroke:#181818;stroke-width:1.0;"/></g><!--MD5=[94fd0e4cb46c6b6f36a30ef7e92998c3]
reverse link ServicesContractOption to CancelServicesContractOption--><g id="link_ServicesContractOption_CancelServicesContractOption"><path codeLine="23" d="M857.13,874.11 C847.49,888.5 837.21,903.86 828.48,916.91 " fill="none" id="ServicesContractOption-backto-CancelServicesContractOption" style="stroke:#181818;stroke-width:1.0;stroke-dasharray:7.0,7.0;"/><polygon fill="none" points="851.47,869.98,868.41,857.26,863.1,877.77,851.47,869.98" style="stroke:#181818;stroke-width:1.0;"/></g><!--MD5=[6ccc172441e238268017d8e0162207c2]
reverse link ServicesContractOption to CostServicesContractOption--><g id="link_ServicesContractOption_CostServicesContractOption"><path codeLine="24" d="M934.96,872.39 C946.64,886.13 958.57,901.6 968,917 C992.99,957.82 1012.66,1009.79 1023.8,1042.74 " fill="none" id="ServicesContractOption-backto-CostServicesContractOption" style="stroke:#181818;stroke-width:1.0;stroke-dasharray:7.0,7.0;"/><polygon fill="none" points="929.51,876.8,921.54,857.16,940.02,867.54,929.51,876.8" style="stroke:#181818;stroke-width:1.0;"/></g><!--MD5=[354bcfa8b67ffac85ab4dd24014f3169]
reverse link ServicesContractOption to EnlargeServicesContractOption--><g id="link_ServicesContractOption_EnlargeServicesContractOption"><path codeLine="25" d="M748.02,852.15 C657.43,869.81 537.6,893.79 432,917 C426.04,918.31 419.94,919.67 413.79,921.07 " fill="none" id="ServicesContractOption-backto-EnlargeServicesContractOption" style="stroke:#181818;stroke-width:1.0;stroke-dasharray:7.0,7.0;"/><polygon fill="none" points="746.8,845.25,767.76,848.31,749.47,859,746.8,845.25" style="stroke:#181818;stroke-width:1.0;"/></g><!--MD5=[e64ea802d749aa14fd5c80b78b6ba804]
reverse link ServicesContractOption to ListServicesContractOption--><g id="link_ServicesContractOption_ListServicesContractOption"><path codeLine="26" d="M924.45,874.44 C942.39,906.74 956.99,949.07 938,983 C923.38,1009.12 897.97,1028.73 872.17,1042.98 " fill="none" id="ServicesContractOption-backto-ListServicesContractOption" style="stroke:#181818;stroke-width:1.0;stroke-dasharray:7.0,7.0;"/><polygon fill="none" points="918.38,877.92,914.04,857.18,930.36,870.69,918.38,877.92" style="stroke:#181818;stroke-width:1.0;"/></g><!--MD5=[70fe4fc35eafa07be3a1e93d4e62eda7]
reverse link ServicesContractOption to PrintServicesContractOption--><g id="link_ServicesContractOption_PrintServicesContractOption"><path codeLine="27" d="M989.8,864.54 C1032.49,881.45 1081.68,900.94 1122.06,916.93 " fill="none" id="ServicesContractOption-backto-PrintServicesContractOption" style="stroke:#181818;stroke-width:1.0;stroke-dasharray:7.0,7.0;"/><polygon fill="none" points="987.03,870.97,971.01,857.09,992.18,857.95,987.03,870.97" style="stroke:#181818;stroke-width:1.0;"/></g><!--MD5=[2b4bc17292dfa6d6af5f66d9e4f2200e]
reverse link ServicesContractOption to QuitOption--><g id="link_ServicesContractOption_QuitOption"><path codeLine="28" d="M890,770.47 C890,710.19 890,612.08 890,553.07 " fill="none" id="ServicesContractOption-backto-QuitOption" style="stroke:#181818;stroke-width:1.0;stroke-dasharray:7.0,7.0;"/><polygon fill="none" points="897,770.82,890,790.82,883,770.82,897,770.82" style="stroke:#181818;stroke-width:1.0;"/></g><!--MD5=[30a836ad63a9ef5ca1c8d2c7929b15c4]
reverse link ServicesContractOption to ShiftServicesContractOption--><g id="link_ServicesContractOption_ShiftServicesContractOption"><path codeLine="29" d="M784.1,864.08 C737.99,881.1 684.62,900.8 640.89,916.93 " fill="none" id="ServicesContractOption-backto-ShiftServicesContractOption" style="stroke:#181818;stroke-width:1.0;stroke-dasharray:7.0,7.0;"/><polygon fill="none" points="781.85,857.45,803.03,857.09,786.7,870.59,781.85,857.45" style="stroke:#181818;stroke-width:1.0;"/></g><!--MD5=[9a71537def6d2d81eb1bd9092d7bbbde]
link QuitMenu to QuitOption--><g id="link_QuitMenu_QuitOption"><path codeLine="104" d="M879.02,392.37 C880.75,409.54 882.69,428.86 884.46,446.42 " fill="none" id="QuitMenu-to-QuitOption" style="stroke:#181818;stroke-width:1.0;"/><polygon fill="#181818" points="885,451.8,888.0793,442.4449,884.4997,446.8251,880.1194,443.2455,885,451.8" style="stroke:#181818;stroke-width:1.0;"/></g><!--MD5=[c52369193743697ab0ec078a44f89d59]
reverse link Menu to QuitMenu--><g id="link_Menu_QuitMenu"><path codeLine="106" d="M943.68,247.38 C932.15,262.78 920.97,277.73 911.06,290.97 " fill="none" id="Menu-backto-QuitMenu" style="stroke:#181818;stroke-width:1.0;stroke-dasharray:7.0,7.0;"/><polygon fill="none" points="938.19,243.04,955.77,231.22,949.4,251.43,938.19,243.04" style="stroke:#181818;stroke-width:1.0;"/></g><!--MD5=[1643475386723689b4d5830d3227cfb1]
reverse link QuitMenu to IterativeMenu--><g id="link_QuitMenu_IterativeMenu"><path codeLine="107" d="M803.72,405.99 C779.66,427.73 753.75,451.14 733.6,469.34 " fill="none" id="QuitMenu-backto-IterativeMenu" style="stroke:#181818;stroke-width:1.0;stroke-dasharray:7.0,7.0;"/><polygon fill="none" points="799.26,400.59,818.8,392.37,808.65,410.97,799.26,400.59" style="stroke:#181818;stroke-width:1.0;"/></g><!--MD5=[3f4a805937588ed106490376110a0d24]
reverse link IterativeMenu to DynamicMenu--><g id="link_IterativeMenu_DynamicMenu"><path codeLine="108" d="M687.16,555.37 C681.46,582.64 674.66,615.19 669.73,638.8 " fill="none" id="IterativeMenu-backto-DynamicMenu" style="stroke:#181818;stroke-width:1.0;stroke-dasharray:7.0,7.0;"/><polygon fill="none" points="680.31,553.94,691.25,535.8,694.01,556.8,680.31,553.94" style="stroke:#181818;stroke-width:1.0;"/></g><!--MD5=[b9cf420391b7d6191d0c7165e845df19]
reverse link DynamicMenu to ServicesContractMenu--><g id="link_DynamicMenu_ServicesContractMenu"><path codeLine="109" d="M583.62,712.43 C527.64,740.23 454.56,776.53 407.7,799.81 " fill="none" id="DynamicMenu-backto-ServicesContractMenu" style="stroke:#181818;stroke-width:1.0;stroke-dasharray:7.0,7.0;"/><polygon fill="none" points="580.86,705.98,601.89,703.35,587.09,718.52,580.86,705.98" style="stroke:#181818;stroke-width:1.0;"/></g><!--MD5=[ac7fad6a375d5792f4568b18cfa75c32]
reverse link QuitOption to Option--><g id="link_QuitOption_Option"><path codeLine="110" d="M944.1,569.16 C955.97,583.58 968.47,598.74 980.08,612.84 " fill="none" id="QuitOption-backto-Option" style="stroke:#181818;stroke-width:1.0;stroke-dasharray:7.0,7.0;"/><polygon fill="none" points="938.35,573.19,931.03,553.3,949.15,564.29,938.35,573.19" style="stroke:#181818;stroke-width:1.0;"/></g><!--MD5=[8daeaf3eedd6c08a0f80d4a90846b3b4]
link Menu to Option--><g id="link_Menu_Option"><path codeLine="112" d="M1036.78,231.17 C1034.52,344.4 1031.09,515.99 1029.26,607.79 " fill="none" id="Menu-to-Option" style="stroke:#181818;stroke-width:1.0;"/><polygon fill="#181818" points="1029.16,612.91,1033.3392,603.9918,1029.26,607.911,1025.3408,603.8318,1029.16,612.91" style="stroke:#181818;stroke-width:1.0;"/><text fill="#000000" font-family="sans-serif" font-size="13" lengthAdjust="spacing" textLength="20" x="1008.0826" y="602.2233">0..*</text></g><!--MD5=[f7db90a857dc88fcf6ba3fe517c2091c]
link ServicesContractMenu to ServicesContract--><g id="link_ServicesContractMenu_ServicesContract"><path codeLine="113" d="M308.25,848.03 C258.99,869.54 185.63,901.57 134.8,923.76 " fill="none" id="ServicesContractMenu-to-ServicesContract" style="stroke:#181818;stroke-width:1.0;"/><polygon fill="#181818" points="129.95,925.88,139.7987,925.9373,134.5308,923.8759,136.5921,918.608,129.95,925.88" style="stroke:#181818;stroke-width:1.0;"/></g><!--MD5=[2d452d884cf81959b4af6c800f317be1]
link ServicesContractOption to ServicesContract--><g id="link_ServicesContractOption_ServicesContract"><path codeLine="114" d="M767.92,832.18 C622.61,842.62 373.4,866.55 165,917 C156.76,919 148.22,921.51 139.85,924.24 " fill="none" id="ServicesContractOption-to-ServicesContract" style="stroke:#181818;stroke-width:1.0;"/><polygon fill="#181818" points="134.66,925.97,144.4639,926.9098,139.402,924.3846,141.9272,919.3226,134.66,925.97" style="stroke:#181818;stroke-width:1.0;"/></g><!--MD5=[879da7d7cdb18bb1a88097dc97815b33]
link ServicesContract to Console--><g id="link_ServicesContract_Console"><path codeLine="117" d="M97.33,974 C134.33,1015.64 210.29,1100.02 226,1109 C329.04,1167.88 470.81,1184.99 543.62,1189.96 " fill="none" id="ServicesContract-to-Console" style="stroke:#181818;stroke-width:1.0;stroke-dasharray:7.0,7.0;"/><polygon fill="#181818" points="548.74,1190.3,540.0225,1185.7168,543.7508,1189.9712,539.4964,1193.6995,548.74,1190.3" style="stroke:#181818;stroke-width:1.0;"/></g><!--MD5=[b70faca776d776ff2a265e9bdfe9e394]
link Menu to Console--><g id="link_Menu_Console"><path codeLine="118" d="M1132.37,160.37 C1248.88,217.78 1433,334.88 1433,501.5 C1433,501.5 1433,501.5 1433,951 C1433,1059.81 1345.62,1065.25 1246,1109 C1136.53,1157.07 770.53,1181.91 638.78,1189.46 " fill="none" id="Menu-to-Console" style="stroke:#181818;stroke-width:1.0;stroke-dasharray:7.0,7.0;"/><polygon fill="#181818" points="633.43,1189.77,642.6336,1193.2763,638.4226,1189.499,642.1999,1185.288,633.43,1189.77" style="stroke:#181818;stroke-width:1.0;"/></g><!--MD5=[bb0f791399b79351c231e7e34ca247a6]
link CancelServicesContractOption to Console--><g id="link_CancelServicesContractOption_Console"><path codeLine="119" d="M745.25,983.03 C719.42,998.6 690.47,1019.13 669,1043 C636.29,1079.37 612.98,1131.95 600.79,1163.95 " fill="none" id="CancelServicesContractOption-to-Console" style="stroke:#181818;stroke-width:1.0;stroke-dasharray:7.0,7.0;"/><polygon fill="#181818" points="598.92,1168.9,605.8325,1161.8845,600.6803,1164.2201,598.3447,1159.068,598.92,1168.9" style="stroke:#181818;stroke-width:1.0;"/></g><!--MD5=[bc696f12bbd2004f1a71273d37df3a56]
link CostServicesContractOption to Console--><g id="link_CostServicesContractOption_Console"><path codeLine="120" d="M928.45,1104.4 C836.42,1128.29 707.18,1161.84 638.42,1179.69 " fill="none" id="CostServicesContractOption-to-Console" style="stroke:#181818;stroke-width:1.0;stroke-dasharray:7.0,7.0;"/><polygon fill="#181818" points="633.17,1181.05,642.8863,1182.6603,638.0096,1179.7937,640.8762,1174.917,633.17,1181.05" style="stroke:#181818;stroke-width:1.0;"/></g><!--MD5=[385b7722a625cd2f131fa2db6a8bc3eb]
link EnlargeServicesContractOption to Console--><g id="link_EnlargeServicesContractOption_Console"><path codeLine="121" d="M355.52,983.07 C383.28,999.57 416.45,1020.85 444,1043 C491.56,1081.25 539.99,1133.44 567.68,1164.82 " fill="none" id="EnlargeServicesContractOption-to-Console" style="stroke:#181818;stroke-width:1.0;stroke-dasharray:7.0,7.0;"/><polygon fill="#181818" points="571.28,1168.92,568.3461,1159.5183,567.9804,1165.1633,562.3354,1164.7976,571.28,1168.92" style="stroke:#181818;stroke-width:1.0;"/></g><!--MD5=[13100a402264a8442b53ed03550910f2]
link ListServicesContractOption to Console--><g id="link_ListServicesContractOption_Console"><path codeLine="122" d="M733.12,1109.03 C702.22,1127.08 664.13,1149.31 635.16,1166.22 " fill="none" id="ListServicesContractOption-to-Console" style="stroke:#181818;stroke-width:1.0;stroke-dasharray:7.0,7.0;"/><polygon fill="#181818" points="630.6,1168.89,640.3888,1167.8043,634.9173,1166.368,636.3536,1160.8965,630.6,1168.89" style="stroke:#181818;stroke-width:1.0;"/></g><!--MD5=[508e441a569760c62f4cbb151d70386d]
link Option to Console--><g id="link_Option_Console"><path codeLine="123" d="M1101.82,704.46 C1208.66,754.95 1387.27,860.89 1326,983 C1283.98,1066.74 1243.54,1073.11 1157,1109 C976.3,1183.94 738.58,1192.7 638.57,1192.75 " fill="none" id="Option-to-Console" style="stroke:#181818;stroke-width:1.0;stroke-dasharray:7.0,7.0;"/><polygon fill="#181818" points="633.34,1192.74,642.34,1196.74,638.34,1192.74,642.34,1188.74,633.34,1192.74" style="stroke:#181818;stroke-width:1.0;"/></g><!--MD5=[967be5e492eaa33c628c3185576d4369]
link ShiftServicesContractOption to Console--><g id="link_ShiftServicesContractOption_Console"><path codeLine="124" d="M558.91,983 C566.2,1030.47 579.76,1118.77 586.68,1163.88 " fill="none" id="ShiftServicesContractOption-to-Console" style="stroke:#181818;stroke-width:1.0;stroke-dasharray:7.0,7.0;"/><polygon fill="#181818" points="587.45,1168.9,590.037,1159.397,586.6908,1163.958,582.1298,1160.6117,587.45,1168.9" style="stroke:#181818;stroke-width:1.0;"/></g><!--MD5=[a7ed42a8a4c486353153de254de5f5fa]
link Interval to Console--><g id="link_Interval_Console"><path codeLine="125" d="M322.21,1097.65 C330.31,1101.62 338.86,1105.6 347,1109 C414.06,1137.02 494.24,1162.89 543.91,1178.07 " fill="none" id="Interval-to-Console" style="stroke:#181818;stroke-width:1.0;stroke-dasharray:7.0,7.0;"/><polygon fill="#181818" points="548.91,1179.59,541.4653,1173.142,544.1268,1178.1336,539.1351,1180.7951,548.91,1179.59" style="stroke:#181818;stroke-width:1.0;"/></g><!--MD5=[8a09663ab959737817b0d6416f4ffb47]
link Date to Console--><g id="link_Date_Console"><path codeLine="126" d="M426.06,1095.22 C458.73,1114.39 510.42,1144.72 547.22,1166.31 " fill="none" id="Date-to-Console" style="stroke:#181818;stroke-width:1.0;stroke-dasharray:7.0,7.0;"/><polygon fill="#181818" points="551.64,1168.9,545.8979,1160.8982,547.3263,1166.3718,541.8527,1167.8001,551.64,1168.9" style="stroke:#181818;stroke-width:1.0;"/></g><!--MD5=[e0e170477512ea7d67ad33b2fede0398]
link ServicesContract to Interval--><g id="link_ServicesContract_Interval"><path codeLine="128" d="M115.26,974.03 C150.71,995.37 203.35,1027.06 240.18,1049.23 " fill="none" id="ServicesContract-to-Interval" style="stroke:#181818;stroke-width:1.0;stroke-dasharray:7.0,7.0;"/><polygon fill="#181818" points="244.59,1051.88,238.9305,1043.8196,240.3025,1049.3075,234.8146,1050.6795,244.59,1051.88" style="stroke:#181818;stroke-width:1.0;"/></g><!--MD5=[277d305f329b93d65310b49a3f966859]
link Date to Month--><g id="link_Date_Month"><path codeLine="130" d="M373.55,1100.27 C356.31,1118.98 332.06,1145.28 313.95,1164.93 " fill="none" id="Date-to-Month" style="stroke:#181818;stroke-width:1.0;stroke-dasharray:7.0,7.0;"/><polygon fill="#181818" points="310.42,1168.76,319.4618,1164.8555,313.8096,1165.0843,313.5808,1159.4321,310.42,1168.76" style="stroke:#181818;stroke-width:1.0;"/></g><!--MD5=[7db7cf1146676b5b9268d0b9cd777561]
link ServicesContract to Month--><g id="link_ServicesContract_Month"><path codeLine="131" d="M83.3,974.06 C93.29,1007.15 115.47,1068.55 152,1109 C178.81,1138.68 218.73,1161.2 248.57,1175.25 " fill="none" id="ServicesContract-to-Month" style="stroke:#181818;stroke-width:1.0;stroke-dasharray:7.0,7.0;"/><polygon fill="#181818" points="253.27,1177.43,246.7879,1170.015,248.734,1175.3265,243.4224,1177.2726,253.27,1177.43" style="stroke:#181818;stroke-width:1.0;"/></g><!--MD5=[2dc1620762a60d67b079a1c6f3c79d27]
link ServicesContract to Date--><g id="link_ServicesContract_Date"><path codeLine="133" d="M139.92,974.04 C148.34,977.08 156.88,980.13 165,983 C242.53,1010.38 265.22,1008.83 340,1043 C346.45,1045.95 353.12,1049.43 359.5,1052.99 " fill="none" id="ServicesContract-to-Date" style="stroke:#181818;stroke-width:1.0;stroke-dasharray:7.0,7.0;"/><polygon fill="#181818" points="363.86,1055.46,358.0051,1047.5404,359.5109,1052.9931,354.0581,1054.4989,363.86,1055.46" style="stroke:#181818;stroke-width:1.0;"/></g><!--MD5=[4b9b146210e7d622b59f650035af6a6d]
link CancelServicesContractOption to Date--><g id="link_CancelServicesContractOption_Date"><path codeLine="134" d="M700.63,983.01 C611.81,1009.75 490.44,1046.27 430.91,1064.19 " fill="none" id="CancelServicesContractOption-to-Date" style="stroke:#181818;stroke-width:1.0;stroke-dasharray:7.0,7.0;"/><polygon fill="#181818" points="426.04,1065.66,435.8115,1066.8918,430.8272,1064.2167,433.5023,1059.2323,426.04,1065.66" style="stroke:#181818;stroke-width:1.0;"/></g><!--MD5=[b096ef1d23aad04c5f736c1a0c7d27f5]
link EnlargeServicesContractOption to Date--><g id="link_EnlargeServicesContractOption_Date"><path codeLine="135" d="M323.23,983.26 C338.89,1003.27 358.78,1028.7 373.65,1047.71 " fill="none" id="EnlargeServicesContractOption-to-Date" style="stroke:#181818;stroke-width:1.0;stroke-dasharray:7.0,7.0;"/><polygon fill="#181818" points="376.94,1051.91,374.5432,1042.3572,373.8585,1047.9725,368.2432,1047.2877,376.94,1051.91" style="stroke:#181818;stroke-width:1.0;"/></g><!--MD5=[36f0d7cfcedf1014642f5ae75a9dab55]
link ShiftServicesContractOption to Date--><g id="link_ShiftServicesContractOption_Date"><path codeLine="136" d="M512.64,983.26 C486.55,1003.61 453.27,1029.56 428.77,1048.67 " fill="none" id="ShiftServicesContractOption-to-Date" style="stroke:#181818;stroke-width:1.0;stroke-dasharray:7.0,7.0;"/><polygon fill="#181818" points="424.61,1051.91,434.1628,1049.5132,428.5475,1048.8285,429.2323,1043.2132,424.61,1051.91" style="stroke:#181818;stroke-width:1.0;"/></g><!--MD5=[43ce5cf99eb1bffe706fe635ab71cd42]
link Format to Date--><g id="link_Format_Date"><path codeLine="137" d="M403.65,1276.77 C409.89,1235.47 410.11,1149.45 404.31,1104.98 " fill="none" id="Format-to-Date" style="stroke:#181818;stroke-width:1.0;stroke-dasharray:7.0,7.0;"/><polygon fill="#181818" points="403.61,1100.02,400.9115,1109.492,404.3111,1104.9706,408.8325,1108.3702,403.61,1100.02" style="stroke:#181818;stroke-width:1.0;"/></g><!--MD5=[79b8f8aa2602e9d8440fc71b43e226fb]
link Date to Format--><g id="link_Date_Format"><path codeLine="139" d="M386.86,1100.02 C380.95,1141.17 380.72,1227.18 386.18,1271.8 " fill="none" id="Date-to-Format" style="stroke:#181818;stroke-width:1.0;stroke-dasharray:7.0,7.0;"/><polygon fill="#181818" points="386.83,1276.77,389.6126,1267.3224,386.1729,1271.8134,381.682,1268.3737,386.83,1276.77" style="stroke:#181818;stroke-width:1.0;"/></g><!--MD5=[6dea380c3f90d2fd8288b1b096ae8647]
link Month to Format--><g id="link_Month_Format"><path codeLine="140" d="M312,1217 C328.42,1233.42 350.56,1255.56 367.84,1272.84 " fill="none" id="Month-to-Format" style="stroke:#181818;stroke-width:1.0;stroke-dasharray:7.0,7.0;"/><polygon fill="#181818" points="371.68,1276.68,368.1445,1267.4876,368.1445,1273.1445,362.4876,1273.1445,371.68,1276.68" style="stroke:#181818;stroke-width:1.0;"/></g><!--MD5=[6d4a0b343664281d57fb3cbadbc530a0]
@startuml
class ServicesContract
abstract class Menu
abstract class DynamicMenu
abstract class IterativeMenu
abstract class QuitMenu
class ServicesContractMenu
abstract class Option
abstract class ServicesContractOption
class CancelServicesContractOption
class CostServicesContractOption
class EnlargeServicesContractOption
class ListServicesContractOption
class PrintServicesContractOption
class QuitOption
class ShiftServicesContractOption
class Date
class Month
class Format
class Console

Option <|.. ServicesContractOption

ServicesContractOption <|.. CancelServicesContractOption
ServicesContractOption <|.. CostServicesContractOption
ServicesContractOption <|.. EnlargeServicesContractOption
ServicesContractOption <|.. ListServicesContractOption
ServicesContractOption <|.. PrintServicesContractOption 
ServicesContractOption <|.. QuitOption 
ServicesContractOption <|.. ShiftServicesContractOption 


class Menu {
 - String title
 +interact()
 #{abstract} addOptions()
 #interact_()
 #showTitles()
 -showTitle()
 #execChoosedOption()
 #add(Option option)
 #removeOptions()
 #hasOption(Option option)
}

abstract class QuitMenu {
 #showTitles()
 #addquitOption()
 #boolean isExecutedquitOption()
}

abstract class IterativeMenu {
 +interact()
}

abstract class DynamicMenu {
 +interact()
}

abstract class Option {
 +title
 +abstract interact()
 +showTitle(int index)
 #String getTitle()
}

abstract class QuitOption {
 +boolean executed
 +interact()
 +boolean isExecuted()
}

abstract class ServicesContractOption {
 #ServicesContract servicesContract
}

class CancelServicesContractOption
{
  +interact()
}

class CostServicesContractOption
{
  +interact()
}

class EnlargeServicesContractOption
{
  +interact()
}

class ListServicesContractOption
{
  +interact()
}
class PrintServicesContractOption
{
  +interact()
}
class ShiftServicesContractOption
{
  +interact()
}

 QuitMenu - -> QuitOption

Menu <|.. QuitMenu
QuitMenu <|.. IterativeMenu
IterativeMenu <|.. DynamicMenu
DynamicMenu <|.. ServicesContractMenu 
QuitOption <|.. Option

Menu - ->"0..*" Option
ServicesContractMenu - -> ServicesContract
ServicesContractOption - -> ServicesContract


ServicesContract ..> Console
Menu ..> Console
CancelServicesContractOption ..> Console
CostServicesContractOption ..> Console
EnlargeServicesContractOption ..> Console
ListServicesContractOption ..> Console
Option ..> Console
ShiftServicesContractOption ..> Console
Interval ..> Console
Date ..> Console

ServicesContract ..> Interval

Date ..> Month
ServicesContract ..> Month

ServicesContract ..> Date
CancelServicesContractOption ..> Date
EnlargeServicesContractOption ..> Date
ShiftServicesContractOption ..> Date
Format ..> Date

Date ..> Format
Month ..> Format






@enduml

PlantUML version 1.2022.7(Mon Aug 22 19:01:30 CEST 2022)
(GPL source distribution)
Java Runtime: Java(TM) SE Runtime Environment
JVM: Java HotSpot(TM) 64-Bit Server VM
Default Encoding: Cp1252
Language: es
Country: ES
--></g></svg>